<?xml version="1.0" standalone="no"?>
<!DOCTYPE svg PUBLIC "-//W3C//DTD SVG 1.1//EN" "http://www.w3.org/Graphics/SVG/1.1/DTD/svg11.dtd" >
<svg xmlns="http://www.w3.org/2000/svg" xmlns:xlink="http://www.w3.org/1999/xlink" version="1.1">
<metadata></metadata>
<defs>
<font id="miracleregular" horiz-adv-x="1034" >
<font-face units-per-em="2048" ascent="1638" descent="-410" />
<missing-glyph horiz-adv-x="471" />
<glyph horiz-adv-x="0" />
<glyph horiz-adv-x="682" />
<glyph unicode=" "  horiz-adv-x="471" />
<glyph unicode="&#x09;" horiz-adv-x="471" />
<glyph unicode="&#xa0;" horiz-adv-x="471" />
<glyph unicode="!" horiz-adv-x="491" d="M123 1454h246l-117 -1079h-14zM133 100q0 46 33.5 78.5t79.5 32.5t78 -32.5t32 -78.5t-32 -78t-78 -32t-79.5 32.5t-33.5 77.5z" />
<glyph unicode="&#x22;" horiz-adv-x="559" d="M125 1401q-4 38 13.5 58t43.5 20t44 -20t14 -58q-11 -106 -22.5 -180t-20.5 -104t-15 -30q-25 0 -57 314zM317 1401q-4 38 14 58t44 20q27 0 44.5 -19.5t14.5 -58.5q-35 -314 -59 -314q-6 0 -15 30t-20.5 104t-22.5 180z" />
<glyph unicode="#" horiz-adv-x="2545" d="M123 326v16h670l180 750h-664v16h668l160 666h16l-162 -666h752l160 666h16l-160 -666h664v-16h-668l-180 -750h663v-16h-667l-160 -666h-16l159 666h-749l-162 -666h-14l159 666h-665zM807 342h752l180 750h-752z" />
<glyph unicode="$" horiz-adv-x="1296" d="M123 147v279q82 -156 236 -272t329 -129v616q-53 20 -78 30t-74.5 31t-75 35t-66 38.5t-62 45.5t-48.5 51.5t-40.5 61.5t-23 70.5t-9.5 82.5q0 68 24 130t73 116.5t137.5 87.5t205.5 33h37v199h17v-201q98 -9 198.5 -44.5t175.5 -84.5v-213q-80 123 -178 199t-196 104 v-579q64 -24 99.5 -38t92.5 -40.5t90 -48t73.5 -55t62 -68t36.5 -80.5t15 -98q0 -173 -133 -288.5t-336 -127.5v-209h-17v209h-26q-130 0 -279 41.5t-260 115.5zM289 1190q-3 -32 3 -61t15.5 -52.5t30.5 -46.5t39 -39.5t51.5 -36t56.5 -31.5t65 -29.5t66.5 -27t71.5 -26.5 v577q-39 10 -88 10q-291 0 -311 -237zM705 25q6 -2 20 -2q147 0 245 66.5t111 182.5q6 43 -2 81t-23 66.5t-46 56.5t-59 47t-75.5 41.5t-81 36t-89.5 34.5v-610z" />
<glyph unicode="%" horiz-adv-x="2224" d="M123 1055q0 110 58.5 203t155.5 145.5t208 52.5q110 0 206.5 -52.5t155 -145.5t58.5 -203q0 -111 -58.5 -204t-154.5 -145.5t-207 -52.5q-171 0 -296.5 117t-125.5 285zM256 1055q0 -161 79.5 -271t209.5 -110q129 0 207.5 110t78.5 271q0 160 -79 270.5t-207 110.5 q-130 0 -209.5 -110.5t-79.5 -270.5zM705 -70l835 1592h16l-835 -1592h-16zM1260 391q0 110 58 203t155 146t208 53q110 0 206.5 -53t155 -146t58.5 -203q0 -111 -58.5 -203.5t-154.5 -145t-207 -52.5q-171 0 -296 116.5t-125 284.5zM1393 391q0 -162 79 -272.5t209 -110.5 q129 0 208 111t79 272q0 160 -79 270.5t-208 110.5q-130 0 -209 -110.5t-79 -270.5z" />
<glyph unicode="&#x26;" horiz-adv-x="1767" d="M129 369q-12 77 1.5 147t48.5 122.5t87 93.5t117 60.5t137.5 23.5t149.5 -17q-150 50 -195 69q-198 88 -228 232q-8 38 -5 80q2 34 15 70.5t42 76t70 72t104.5 54t140.5 26t183.5 -15.5t228.5 -66v-221q-49 83 -114.5 147t-131 97t-131 44t-114.5 -12q-138 -59 -138 -260 q0 -136 99 -248.5t282 -177.5q-2 -6 -6 -12q-166 57 -278 15.5t-165.5 -152.5t-39.5 -261q13 -141 135.5 -243.5t314.5 -102.5q123 0 221.5 35t157.5 92.5t97.5 129t46 146t-3 141t-43.5 118t-80 73.5q-92 -189 -187 -256q-64 -50 -135 -49.5t-94 52.5q-7 16 -8 32.5 t5.5 32.5t14.5 30.5t24.5 31t30 29t37 29t39 27t42 26t41 23.5t40.5 23l6 -12q-228 -125 -194 -221q10 -28 36 -38t58.5 -2.5t64.5 27.5q17 11 34 26t34.5 39t29.5 41.5t32 53.5t28.5 52t30.5 60.5t29 57.5q20 40 53.5 113.5t53 113t49 83t59.5 63.5q71 47 131.5 33.5 t95.5 -74.5q57 -96 -1 -224.5t-175 -203.5q-116 -73 -254 -35q33 -28 55.5 -75t32.5 -104t3.5 -121t-27.5 -126t-65 -119t-104.5 -100t-151.5 -68.5t-200 -25.5q-124 0 -234 34t-185 89t-122.5 121.5t-58.5 134.5zM1143 760q155 -76 291 14q63 42 99 107.5t35 127t-32 113.5 q-38 58 -85.5 68.5t-88.5 -21.5q-15 -10 -32 -32.5t-35.5 -57.5t-33.5 -66t-37.5 -79.5t-35.5 -75.5q-7 -16 -22.5 -49t-22.5 -49z" />
<glyph unicode="'" horiz-adv-x="364" d="M125 1401q-4 39 13 58.5t44 19.5q26 0 44 -20t14 -58q-11 -106 -22.5 -180t-20.5 -104t-15 -30q-25 0 -57 314z" />
<glyph unicode="(" horiz-adv-x="755" d="M123 616q0 371 134 621t372 322l4 -17q-232 -69 -363 -315t-131 -611q0 -364 131 -609t363 -314l-4 -17q-238 72 -372 321t-134 619z" />
<glyph unicode=")" horiz-adv-x="757" d="M123 -307q232 69 363.5 314t131.5 609q0 365 -131.5 611t-363.5 315l6 17q237 -72 371.5 -322.5t134.5 -620.5t-134.5 -619t-371.5 -321z" />
<glyph unicode="*" horiz-adv-x="741" d="M127 1300q9 27 31.5 37.5t60.5 -6.5q94 -51 123 -71q-21 95 -29 141q-7 38 12 58t46 20t45.5 -20t11.5 -58q-8 -46 -29 -141q29 20 123 71q38 17 60.5 6.5t31.5 -37.5q9 -25 -4 -49t-51 -28q-102 -14 -143 -17q30 -21 106 -94q28 -31 24.5 -56t-26.5 -42 q-14 -10 -29.5 -12t-33 8t-29.5 34q-45 91 -57 132q-21 -57 -58 -132q-12 -24 -29.5 -34t-33 -8t-29.5 12q-23 17 -26.5 42t24.5 56q74 71 107 94q-43 3 -144 17q-38 4 -51 28t-4 49z" />
<glyph unicode="+" d="M123 709v16h385v385h16v-385h387v-16h-387v-387h-16v387h-385z" />
<glyph unicode="," horiz-adv-x="468" d="M123 100q0 46 32 78.5t78 32.5t79.5 -32.5t33.5 -78.5q0 -156 -184 -303l-10 10q124 109 157 211q-31 -28 -76 -28q-46 0 -78 32t-32 78z" />
<glyph unicode="-" d="M123 709v16h788v-16h-788z" />
<glyph unicode="." horiz-adv-x="466" d="M123 100q0 46 32 78.5t78 32.5t78.5 -32.5t32.5 -78.5t-32.5 -78t-78.5 -32t-78 32t-32 78z" />
<glyph unicode="/" horiz-adv-x="989" d="M123 -340l729 2114h14l-729 -2114h-14z" />
<glyph unicode="0" horiz-adv-x="1361" d="M123 721q0 158 44 295.5t118.5 233t177 150t217.5 54.5q145 0 273.5 -97.5t207 -267.5t78.5 -368q0 -159 -44 -296t-119.5 -232t-178 -149t-217.5 -54q-107 0 -209.5 58t-178.5 155.5t-122.5 233.5t-46.5 284zM283 721q0 -189 44 -348t136 -261t217 -102t217.5 102 t137 261t44.5 348q0 190 -44.5 349.5t-137 261.5t-217.5 102t-217 -102t-136 -261.5t-44 -349.5z" />
<glyph unicode="1" horiz-adv-x="722" d="M123 0v16h160v1307l-156 -106v40l313 177v-1418h160v-16h-477z" />
<glyph unicode="2" horiz-adv-x="1171" d="M123 0v16q215 183 224 191q265 235 383 436q124 210 124 426q0 159 -83 262t-216 103q-121 0 -223 -76t-166 -217l-12 8q49 108 120 178t147.5 98.5t164.5 28.5q86 0 162 -25t137 -73t97 -127t36 -178q0 -69 -20.5 -137t-66.5 -139.5t-100.5 -138t-142.5 -150.5 t-172 -157.5t-207 -176.5h740v-152h-926z" />
<glyph unicode="3" horiz-adv-x="1265" d="M123 217l14 16q31 -35 74.5 -70t104 -71.5t138.5 -59t158 -22.5q90 0 159.5 28.5t111.5 78.5t65 109.5t29 129.5q14 150 -40 261t-166 152.5t-279 -15.5l-5 12q359 111 359 403q0 121 -72.5 194t-179.5 73q-229 0 -336 -219l-12 10q124 229 368 229q172 0 279.5 -84.5 t107.5 -214.5q0 -59 -24 -110.5t-58.5 -86t-88.5 -66t-96.5 -49.5t-100.5 -38q89 13 169.5 4t148 -47.5t114 -93.5t66.5 -133.5t6 -167.5q-11 -68 -51 -134.5t-103.5 -121.5t-157 -89t-200.5 -34q-279 0 -502 227z" />
<glyph unicode="4" horiz-adv-x="1323" d="M123 324v16l706 913v181h156v-1094h215v-16h-215v-324h-156v324h-706zM143 340h686v891z" />
<glyph unicode="5" horiz-adv-x="1251" d="M123 256l12 20q75 -116 199 -191t248 -75q96 0 170.5 35.5t118.5 95t67 128t27 143.5q10 175 -69 293t-229 147t-362 -55l-6 14l107 623h667v-154h-680l-78 -465q97 50 200.5 68t195.5 6.5t173.5 -50t137.5 -97.5t84 -141.5t18 -176.5q-10 -86 -50 -163t-106 -138 t-163.5 -97t-212.5 -36q-137 0 -260 75.5t-209 190.5z" />
<glyph unicode="6" horiz-adv-x="1273" d="M123 616q0 126 28 248t84 228.5t132.5 187.5t180.5 127.5t222 46.5q78 0 158.5 -28.5t126.5 -86.5l-11 -10q-41 50 -120 79.5t-154 29.5q-82 0 -152 -28.5t-121 -76t-91 -114.5t-66 -140.5t-43 -156.5t-24 -160t-7 -154q17 60 53 117t89 105.5t129.5 78t164.5 29.5 q115 0 216.5 -55t167 -162t65.5 -242q0 -132 -60 -243t-173 -178.5t-256 -67.5q-80 0 -154.5 20.5t-145.5 68.5t-123.5 118.5t-84 178.5t-31.5 240zM266 551q0 -160 39.5 -279t127.5 -190.5t218 -71.5q90 0 160.5 36t114 98t66 142.5t22.5 172.5q0 194 -98.5 324t-247.5 130 q-69 0 -132 -25t-109 -64t-81.5 -88t-55 -96.5t-24.5 -88.5z" />
<glyph unicode="7" horiz-adv-x="1148" d="M123 1303v151h903v-14l-623 -1440h-61l612 1303h-831z" />
<glyph unicode="8" horiz-adv-x="1269" d="M123 340q0 262 371 428q-78 47 -128.5 92t-85 113t-32.5 149q5 137 127 235.5t295 98.5q102 0 185.5 -36.5t135 -108t51.5 -166.5q0 -54 -23 -103t-56.5 -84t-80.5 -66.5t-86 -50t-81 -34.5q175 -89 234 -127q161 -106 191 -235q7 -33 7 -68q0 -163 -146.5 -275 t-361.5 -112q-147 0 -262 39.5t-184.5 120t-69.5 190.5zM254 412q0 -109 35.5 -190t95.5 -125.5t129.5 -65.5t147.5 -21q29 0 67 5t92.5 22t98 44.5t77 79t37.5 118.5q4 63 -18.5 117.5t-58 92.5t-95.5 78t-111 66t-126 64t-121 65q-116 -53 -183 -140.5t-67 -209.5z M362 1188q-2 -45 8.5 -85t34.5 -74t52 -61.5t71.5 -56t80 -49t89.5 -47.5q105 46 163 136t54 216q-3 68 -30.5 122t-69 84.5t-85.5 46.5t-85 16q-45 0 -91 -15t-88.5 -43.5t-71 -78t-32.5 -111.5z" />
<glyph unicode="9" horiz-adv-x="1273" d="M123 965q0 132 60 243t173 178.5t256 67.5q80 0 154.5 -21t145.5 -69t123.5 -118.5t84 -178.5t31.5 -240q0 -158 -45.5 -308t-126.5 -268t-205 -189.5t-270 -71.5q-78 0 -159 28t-126 86l10 9q41 -50 120 -78.5t155 -28.5q82 0 152 28.5t121 76t91 114.5t66 140.5 t43 156.5t24 160t7 154q-17 -60 -53 -117t-89.5 -106t-130 -79t-164.5 -30q-115 0 -216.5 55.5t-166.5 163t-65 242.5zM260 985q0 -194 98.5 -324.5t247.5 -130.5q69 0 132 25t109 64.5t81.5 88.5t55 96.5t24.5 88.5q0 160 -39.5 279t-127.5 190.5t-218 71.5 q-90 0 -160.5 -36t-114 -98t-66 -142.5t-22.5 -172.5z" />
<glyph unicode=":" horiz-adv-x="466" d="M123 100q0 46 32 78.5t78 32.5t78.5 -32.5t32.5 -78.5t-32.5 -78t-78.5 -32t-78 32t-32 78zM123 874q0 46 32 78.5t78 32.5t78.5 -32.5t32.5 -78.5t-32.5 -78t-78.5 -32t-78 32t-32 78z" />
<glyph unicode=";" horiz-adv-x="468" d="M123 100q0 46 32 78.5t78 32.5t79.5 -32.5t33.5 -78.5q0 -156 -184 -303l-10 10q124 109 157 211q-31 -28 -76 -28q-46 0 -78 32t-32 78zM123 874q0 46 32 78.5t78 32.5t79.5 -32.5t33.5 -78.5q0 -45 -33.5 -77.5t-79.5 -32.5t-78 32t-32 78z" />
<glyph unicode="&#x3c;" horiz-adv-x="864" d="M123 575v19l618 270v-16l-600 -264l600 -262v-19z" />
<glyph unicode="=" d="M123 532v15h788v-15h-788zM123 887v14h788v-14h-788z" />
<glyph unicode="&#x3e;" horiz-adv-x="864" d="M123 303v19l600 262l-600 264v16l618 -270v-19z" />
<glyph unicode="?" horiz-adv-x="1067" d="M123 1149q54 159 162.5 232t244.5 73q82 0 155.5 -22.5t132 -65t92.5 -111.5t34 -155q0 -74 -37 -147.5t-94 -131t-129.5 -108.5t-139 -84.5t-128.5 -55.5v-198h-17v209q65 25 114.5 50.5t101.5 67.5t86 92.5t55.5 125t21.5 165.5q0 150 -81 249.5t-212 99.5 q-116 0 -213 -79t-137 -214zM297 100q0 46 32.5 78.5t78.5 32.5t78 -32.5t32 -78.5t-32 -78t-78 -32t-78.5 32t-32.5 78z" />
<glyph unicode="@" horiz-adv-x="2209" d="M127 494q10 151 61.5 283t132.5 230t184.5 175t221 124t238 71t239.5 22q177 -2 339 -67t282 -175t191 -265.5t71 -330.5q0 -121 -36 -228t-94 -179t-129.5 -115.5t-144.5 -48.5q-51 -4 -96.5 8.5t-86.5 44t-65 93.5t-24 149v266q-12 -80 -31 -151.5t-53.5 -149 t-79.5 -133t-113 -91.5t-151 -36q-64 0 -129.5 27t-120.5 76t-91 128t-38 172q-3 105 22 192.5t67.5 147.5t103 106t122.5 73t132.5 44t127 23t111.5 6q131 0 283 -72v-667q0 -111 36 -168t115 -51q43 3 89.5 28t91 72t80 109t57.5 147t22 178q0 137 -44.5 262t-124.5 223.5 t-187 172t-236.5 114t-267.5 43.5q-139 3 -280 -29t-276 -104t-241.5 -174.5t-176 -252t-80.5 -324.5q-10 -157 20.5 -292.5t89 -232t140 -174t169.5 -126t183.5 -81t175.5 -46t151 -13.5q128 -1 251 26t202.5 61.5t149.5 77.5t93.5 62.5t32.5 28.5l17 -16q-5 -6 -35 -30 t-98 -64t-151.5 -75.5t-207.5 -63.5t-254 -30q-60 -1 -135 9.5t-172.5 40.5t-190 76.5t-181.5 125t-152.5 178.5t-97.5 244.5t-23 315.5zM762 362q4 -67 29 -132t64.5 -115t97 -75.5t120.5 -12.5q81 15 149 93.5t107.5 181t60.5 201t21 169.5v284q-47 19 -123 19 q-47 -1 -93 -7.5t-102 -24.5t-104 -46t-94 -75.5t-76.5 -109t-46.5 -152t-10 -198.5z" />
<glyph unicode="A" horiz-adv-x="1134" d="M20 0l447 1257l-68 177h162l553 -1434h-162l-213 551h-508l-194 -551h-17zM238 565h495l-258 672z" />
<glyph unicode="B" horiz-adv-x="1286" d="M123 0v1434h428q72 0 137 -5.5t136.5 -18.5t128.5 -38.5t103.5 -61.5t72.5 -91.5t26 -124.5q0 -80 -33.5 -140.5t-93.5 -97.5t-129.5 -58.5t-155.5 -31.5q76 -8 145.5 -25t135.5 -48t114 -72.5t77.5 -102.5t29.5 -133q0 -83 -38 -150.5t-98.5 -110.5t-141.5 -71.5 t-162.5 -40.5t-165.5 -12h-516zM283 14h356q98 0 175.5 21.5t127 56.5t82 84t46 100.5t13.5 108.5t-13.5 108t-46 99.5t-82 83.5t-127 56.5t-175.5 21.5h-356v-740zM283 770h268q444 0 444 324q0 71 -23 127t-72.5 101.5t-138 70t-210.5 24.5h-268v-647z" />
<glyph unicode="C" horiz-adv-x="1507" d="M41 721q0 149 64.5 285.5t170 234t247 155.5t290.5 58q151 0 306.5 -56t211.5 -104v-243q-117 197 -321 297q-142 70 -283 70q-62 0 -123 -13q-102 -22 -182 -82.5t-129 -146.5t-73 -188q-20 -85 -21 -176q0 -20 1 -38q5 -112 38 -219q83 -270 290 -403 q159 -102 356 -102q59 0 122 9q139 22 254 112t192 243l14 -8q-202 -416 -669 -416q-150 0 -289 58t-241.5 156t-164 233.5t-61.5 283.5z" />
<glyph unicode="D" horiz-adv-x="1449" d="M123 0v1434h465q175 0 328 -55.5t261 -151.5t170 -228.5t62 -281.5q0 -150 -62 -283t-170 -228t-261 -150.5t-328 -55.5h-465zM283 14h305q150 0 276 56.5t209.5 153t129.5 224t46 269.5t-46 268.5t-129.5 222.5t-209.5 152.5t-276 56.5h-305v-1403z" />
<glyph unicode="E" horiz-adv-x="948" d="M123 0v1434h721v-127l-559 110v-604l516 45v-104l-516 45v-785l581 111v-125h-743z" />
<glyph unicode="F" horiz-adv-x="862" d="M123 0v1434h678v-127l-516 110v-669l471 43v-103l-471 43v-731h-162z" />
<glyph unicode="G" horiz-adv-x="1548" d="M41 721q0 149 64 285.5t169.5 234t247 155.5t291.5 58t305 -56t211 -104v-243q-114 197 -319 297q-143 70 -284 70q-61 0 -122 -13q-102 -22 -182.5 -82.5t-129.5 -146t-74 -188.5q-20 -83 -20 -173q0 -20 2 -41q5 -111 38 -219q84 -275 278 -414q156 -111 359 -111 q52 0 106 7q168 22 283 147v498h161v-358q-18 -39 -50 -80.5t-88.5 -88t-126.5 -82.5t-171.5 -59.5t-216.5 -23.5q-148 0 -283.5 58t-233.5 156t-156 233.5t-58 283.5z" />
<glyph unicode="H" horiz-adv-x="1282" d="M123 0v1434h162v-578h712v578h162v-1434h-162v842h-712v-842h-162z" />
<glyph unicode="I" horiz-adv-x="407" d="M123 0v1434h162v-1434h-162z" />
<glyph unicode="J" horiz-adv-x="516" d="M-61 -190q75 27 126 63.5t90 96t57.5 148.5t18.5 214v1085h-161v17h323v-1102q0 -86 -18.5 -158t-53.5 -125t-75 -93.5t-95.5 -72.5t-101 -52t-104.5 -40z" />
<glyph unicode="K" horiz-adv-x="1191" d="M123 0v1434h162v-809l766 792h22l-446 -461l544 -956h-172l-483 844l-231 -240v-604h-162z" />
<glyph unicode="L" horiz-adv-x="927" d="M123 0v1434h160v-1420l583 111v-125h-743z" />
<glyph unicode="M" horiz-adv-x="1589" d="M41 1434h172l588 -908l522 908h143v-1434h-161v1372l-564 -979h-18l-586 893v-1286h-16v1311z" />
<glyph unicode="N" horiz-adv-x="1294" d="M0 1434h207l928 -1176v1176h16v-1434h-31l-975 1247v-1247h-14v1268z" />
<glyph unicode="O" horiz-adv-x="1613" d="M41 721q0 149 63 285.5t167.5 234t245 155.5t290.5 58q149 0 289.5 -58t245 -155.5t168 -234t63.5 -285.5q0 -148 -63.5 -284t-168 -233.5t-245 -155.5t-289.5 -58q-150 0 -290.5 58t-245 155.5t-167.5 233.5t-63 284zM213 721q0 -141 43 -270.5t119 -228t188.5 -157.5 t243.5 -59q173 0 310.5 100.5t210.5 263t73 351.5q0 142 -43.5 271.5t-119.5 228t-188.5 157t-242.5 58.5q-131 0 -243.5 -58.5t-188.5 -157t-119 -228t-43 -271.5z" />
<glyph unicode="P" horiz-adv-x="1097" d="M123 0v1434h262q206 0 354 -43.5t233 -138.5t85 -236t-85 -236.5t-233 -139.5t-354 -44h-100v-596h-162zM285 612h100q510 0 510 404q0 401 -510 401h-100v-805z" />
<glyph unicode="Q" horiz-adv-x="1613" d="M41 721q0 149 63 285.5t167.5 234t245 155.5t290.5 58q149 0 289.5 -58t245 -155.5t168 -234t63.5 -285.5q0 -192 -102 -358t-271 -265l225 -63v-146l-297 170q-150 -69 -321 -69q-150 0 -290.5 58t-245 155.5t-167.5 233.5t-63 284zM213 721q0 -141 43 -270.5t119 -228 t188.5 -157.5t243.5 -59q149 0 278 80l-114 66v12l162 -47q126 98 197 258.5t71 345.5q0 142 -43.5 271.5t-119.5 228t-188.5 157t-242.5 58.5q-131 0 -243.5 -58.5t-188.5 -157t-119 -228t-43 -271.5z" />
<glyph unicode="R" horiz-adv-x="1183" d="M123 0v1434h350q122 0 229 -23.5t192.5 -69t135 -121t49.5 -171.5q0 -140 -97 -230t-261 -129l401 -690h-176l-379 666q-31 -2 -94 -2h-188v-664h-162zM285 678h188q112 0 195.5 24t130 60t74.5 88t36.5 98t8.5 101q0 45 -6.5 83.5t-22.5 82.5t-48 78.5t-79 63.5 t-121 44.5t-168 15.5h-188v-739z" />
<glyph unicode="S" horiz-adv-x="1173" d="M61 147v279q55 -105 144.5 -194.5t212 -149t246.5 -59.5q147 0 245 66.5t111 182.5q2 19 2 37q0 47 -17 87q-24 56 -72.5 94.5t-113.5 70.5t-139 60t-149 56.5t-143.5 65.5t-121.5 82.5t-84.5 112.5t-31.5 149q0 68 24 130t73 116.5t137.5 87.5t205.5 33q108 0 224 -37 t204 -94v-213q-70 108 -159 182t-168.5 104.5t-151.5 30.5q-292 0 -312 -237q-1 -11 -1 -22q0 -70 40 -124q46 -63 123 -104t172.5 -76t192 -74t177 -86t131 -123t50.5 -175q0 -120 -67 -215.5t-184 -148t-261 -52.5q-129 0 -278 42t-261 115z" />
<glyph unicode="T" horiz-adv-x="1355" d="M82 1307v127h1192v-127l-516 110v-1417h-160v1417z" />
<glyph unicode="U" horiz-adv-x="1298" d="M123 530v904h162v-904q0 -256 125 -396q110 -124 295 -124q25 0 51 2q92 7 169 49.5t128 107t79.5 146t28.5 168.5v951h15v-951q0 -216 -138 -354.5t-354 -138.5q-117 0 -217 32.5t-177.5 97t-122 169.5t-44.5 241z" />
<glyph unicode="V" horiz-adv-x="1134" d="M20 1434h162l477 -1237l439 1237h16l-446 -1258l67 -176h-162z" />
<glyph unicode="W" horiz-adv-x="1937" d="M20 1434h162l475 -1233l312 919l-121 314h162l475 -1233l418 1233h14l-424 -1254l70 -180h-162l-424 1100l-311 -920l67 -180h-160z" />
<glyph unicode="X" horiz-adv-x="1275" d="M41 0l522 715l-497 719h180l422 -613l446 613h21l-459 -625l559 -809h-178l-486 700l-512 -700h-18z" />
<glyph unicode="Y" horiz-adv-x="1142" d="M20 1434h162l490 -926l434 926h16l-440 -938v-496h-162v496z" />
<glyph unicode="Z" horiz-adv-x="1140" d="M41 0l838 1417l-713 -110v127h893l-840 -1418l838 109v-125h-1016z" />
<glyph unicode="[" horiz-adv-x="679" d="M123 -340v2114h434v-15h-420v-2085h420v-14h-434z" />
<glyph unicode="\" horiz-adv-x="991" d="M123 1774h16l729 -2114h-14z" />
<glyph unicode="]" horiz-adv-x="679" d="M123 -326h420v2085h-420v15h420h14v-2114h-434v14z" />
<glyph unicode="^" horiz-adv-x="813" d="M123 1126l283 330l284 -330l-10 -10l-274 318l-273 -318z" />
<glyph unicode="_" d="M123 -39h788v-16h-788v16z" />
<glyph unicode="`" horiz-adv-x="604" d="M124.5 1436.5q-5.5 27.5 10.5 46.5q15 21 39.5 23t56.5 -23q122 -108 250 -230l-12 -18q-99 37 -305 154q-34 20 -39.5 47.5z" />
<glyph unicode="a" horiz-adv-x="1026" d="M41 305q0 100 44.5 175.5t114 114.5t154.5 53q40 6 78 6q44 0 86 -8q80 -16 146.5 -58.5t97.5 -106.5v191q0 122 -62.5 207.5t-167.5 85.5q-98 0 -167.5 -50t-94.5 -133l-14 6q26 88 101.5 142.5t193.5 54.5q53 0 104 -11t100.5 -36.5t86.5 -63.5t59.5 -97t22.5 -132 v-645h-23l-139 287q-31 -126 -120.5 -211.5t-233.5 -85.5q-149 0 -258 91t-109 224zM188 324q0 -125 78.5 -210t186.5 -85q69 0 127 32t96 84.5t60.5 116.5t25.5 131v49q-17 49 -57 89t-92 61q-53 21 -111 29q-20 3 -38 3q-38 0 -76 -11q-56 -16 -100.5 -48.5t-72 -95 t-27.5 -145.5z" />
<glyph unicode="b" horiz-adv-x="1157" d="M102 0v1434h162v-795q38 159 149 252.5t253 93.5q85 0 166 -36.5t144 -100.5t101.5 -158.5t38.5 -202.5t-38.5 -202.5t-101.5 -158t-144 -100t-166 -36.5q-143 0 -254.5 94.5t-147.5 253.5l-139 -338h-23zM264 487q0 -61 12.5 -123t42 -124t71.5 -108t108 -74 q55 -23 121 -24q12 0 24 1q126 6 215.5 133t89.5 319q0 190 -89.5 317.5t-215.5 135.5q-12 1 -24 1q-65 1 -121 -23q-66 -28 -108 -75t-71.5 -109t-42 -124t-12.5 -123z" />
<glyph unicode="c" horiz-adv-x="1085" d="M43 465v17q1 93 31 173q34 88 89.5 147.5t127.5 101.5t145.5 61.5t143.5 19.5q152 0 356 -102v-176q-20 45 -65.5 95.5t-104.5 92.5q-60 43 -135 63q-43 12 -85 11q-30 0 -59 -6q-73 -17 -131.5 -63.5t-93.5 -112t-52 -141.5q-13 -59 -13 -121q0 -18 1 -37q5 -81 31 -154 q57 -160 179 -242q101 -67 225 -68q26 0 53 3q58 6 111 29.5t89 52t68.5 66.5t48 61.5t29.5 48.5l12 -6q-148 -275 -428 -289q-16 -1 -32 -1q-65 0 -129 13q-80 16 -153.5 53.5t-130 93t-91.5 137.5t-37 179z" />
<glyph unicode="d" horiz-adv-x="1157" d="M41 487q0 108 38.5 202.5t102 158.5t144.5 100.5t166 36.5q143 0 254 -93.5t147 -252.5v795h162v-1434h-21l-139 338q-38 -159 -149 -253.5t-254 -94.5q-85 0 -166 36.5t-144.5 100t-102 158t-38.5 202.5zM209 487q0 -192 89.5 -319t215.5 -133q12 -1 24 -1q64 0 120 24 q66 28 108.5 74t72 108t42 124t12.5 123t-12.5 123t-42 124t-72 109t-108.5 75q-55 23 -120 23q-12 0 -24 -1q-126 -8 -215.5 -135.5t-89.5 -317.5z" />
<glyph unicode="e" horiz-adv-x="1087" d="M43 465v17q1 92 31 172q34 87 89.5 145.5t128.5 100.5t146 62t144 23q14 1 27 0q55 0 111 -12q70 -16 135 -52t111 -103t56 -156h-805q-17 -75 -17 -145q0 -95 31 -183q57 -160 179 -242q101 -67 225 -68q26 0 53 3q57 6 110 29.5t88.5 52t68 66.5t48 61.5t29.5 48.5 l15 -6q-155 -275 -431 -289q-16 -1 -32 -1q-65 0 -129 13q-80 16 -153.5 53.5t-130 93t-91.5 137.5t-37 179zM221 678h653q-21 140 -131 226q-84 66 -189 65q-33 0 -67 -6q-99 -19 -167 -96.5t-99 -188.5z" />
<glyph unicode="f" horiz-adv-x="722" d="M41 971v14h121v115q0 91 30.5 161t82.5 111t113 61.5t128 20.5q115 0 176 -51t92 -146l-14 -6q-27 83 -82.5 133t-142.5 50q-108 0 -164.5 -74.5t-56.5 -218.5v-156h395v-14h-395v-971h-162v971h-121z" />
<glyph unicode="g" horiz-adv-x="1167" d="M41 442q0 122 48 226.5t127 172.5t177.5 106t202.5 38q120 0 229 -45l363 98v-98l-330 -12q115 -58 182.5 -160.5t67.5 -237.5q0 -118 -48 -221t-126.5 -172t-178 -108t-202.5 -39q-79 0 -139 14q-15 2 -31 2q-50 0 -103 -17q-71 -22 -122 -65q-67 -54 -72 -123v-9 q0 -59 35 -97q48 -51 143 -51q40 0 80.5 12.5t90.5 42.5t80 51t91 66q60 45 94.5 68.5t88 55.5t101 46t93.5 14q85 0 136.5 -48.5t51.5 -127.5q0 -89 -65 -154q-92 -92 -260 -92q-85 0 -183.5 45.5t-156.5 97.5q-140 -94 -242 -94q-105 0 -155 56q-40 42 -40 102q0 8 1 16 q3 75 75 138q87 71 205 84q-141 48 -225 156.5t-84 262.5zM213 379q56 -195 193 -299q93 -71 201 -71q50 0 104 16q85 25 143.5 83t83.5 136q26 76 26 165v3q-1 91 -28 184q-37 125 -108.5 216t-173.5 131q-57 22 -116 22q-49 0 -100 -15q-85 -25 -143.5 -83.5t-84.5 -136.5 q-25 -76 -25 -164q0 -92 28 -187zM520 -268q57 -50 151 -92.5t175 -42.5q162 0 248 86q59 62 59 134v7q0 71 -47 114.5t-123 43.5q-44 0 -89.5 -14t-98.5 -45.5t-85.5 -54t-93.5 -67.5q-34 -26 -96 -69z" />
<glyph unicode="h" horiz-adv-x="1085" d="M102 0v1434h162v-957q6 54 14.5 101t23 100.5t33 96t46.5 83t62.5 67.5t81.5 43.5t102 16.5q132 0 224.5 -91t111.5 -267q10 -99 33.5 -344t27.5 -283h-162q-5 39 -30.5 330t-28.5 325q-5 49 -17 93.5t-34 86t-51 69.5q-29 30 -72 42q-24 7 -50 6q-21 0 -44 -4 q-65 -12 -115.5 -67.5t-79 -127t-46.5 -161t-24 -158t-6 -129.5v-305h-162z" />
<glyph unicode="i" horiz-adv-x="364" d="M84 1247q0 40 28 68t68 28t68 -28t28 -68t-28 -68t-68 -28t-68 28t-28 68zM106 0v985h160v-985h-160z" />
<glyph unicode="j" horiz-adv-x="364" d="M-125 -530q96 46 141.5 97t65.5 142t20 262v1014h160v-991q0 -102 -22.5 -184t-56 -135t-88.5 -98t-102 -70t-114 -52zM80 1247q0 40 28 68t68 28t68 -28t28 -68t-28 -68t-68 -28t-68 28t-28 68z" />
<glyph unicode="k" horiz-adv-x="993" d="M102 0v1434h160v-977l580 514h22l-332 -295l420 -676h-166l-358 586l-166 -148v-438h-160z" />
<glyph unicode="l" horiz-adv-x="366" d="M102 0v1434h162v-1434h-162z" />
<glyph unicode="m" horiz-adv-x="1630" d="M102 0v969h162v-439q8 73 19.5 131.5t36 121.5t58.5 105t89.5 69.5t126.5 27.5q122 0 209 -98t94 -262v-23q48 383 307 383q124 0 203.5 -91.5t97.5 -268.5q10 -88 24 -224.5t26 -258.5t14 -142h-164q-54 607 -59 655q-6 63 -20.5 116.5t-41 100t-70.5 68.5 q-28 13 -61 13q-20 0 -41 -5q-210 -46 -215 -573v-375h-162v655q0 83 -23 153q-24 70 -78 112q-41 32 -94 31q-17 0 -36 -3q-240 -45 -240 -645v-303h-162z" />
<glyph unicode="n" horiz-adv-x="1087" d="M102 0v971h162v-494q6 54 14.5 101t23 100.5t33 96t46.5 83t62.5 67.5t81.5 43.5t102 16.5q132 0 224.5 -91t111.5 -267q60 -608 63 -627h-164q-44 503 -59 655q-5 49 -17 93.5t-34 86t-51 69.5q-29 30 -72 42q-24 7 -50 6q-21 0 -44 -4q-65 -12 -115.5 -67.5t-79 -127.5 t-46.5 -161.5t-24 -158.5t-6 -130v-303h-162z" />
<glyph unicode="o" horiz-adv-x="1163" d="M41 487q0 112 48 208t126 158t173.5 97t193.5 35t193.5 -35t173 -97t125.5 -158t48 -208t-48 -208t-125.5 -158t-173 -96.5t-193.5 -34.5t-193.5 34.5t-173.5 96.5t-126 158t-48 208zM209 487q0 -201 110 -341t263 -140t262.5 140t109.5 341t-109.5 341.5t-262.5 140.5 t-263 -140.5t-110 -341.5z" />
<glyph unicode="p" horiz-adv-x="1157" d="M102 -459v1434h160v-336q38 159 149.5 252.5t254.5 93.5q85 0 166 -36.5t144 -100.5t101.5 -158.5t38.5 -202.5t-38.5 -202.5t-101.5 -158t-144 -100t-166 -36.5q-143 0 -254.5 93.5t-149.5 252.5v-795h-160zM262 487q0 -60 13 -122.5t42.5 -124.5t72 -108.5t108.5 -73.5 q55 -24 119 -24q12 0 24 1q128 6 217.5 133t89.5 319q0 191 -89.5 318t-217.5 135q-12 1 -24 1q-64 0 -119 -23q-66 -28 -108.5 -75t-72 -109t-42.5 -124.5t-13 -122.5z" />
<glyph unicode="q" horiz-adv-x="1157" d="M41 487q0 108 38.5 202.5t102 158.5t144.5 100.5t166 36.5q143 0 254 -94.5t149 -253.5l139 338h21v-1434h-162v795q-36 -159 -147 -252.5t-254 -93.5q-85 0 -166 36.5t-144.5 100t-102 158t-38.5 202.5zM209 487q0 -192 89.5 -319t215.5 -133q12 -1 24 -1q65 0 120 24 q66 27 108.5 73.5t72 108.5t42 124t12.5 123t-12.5 123t-42 124t-72 109t-108.5 75q-55 23 -120 23q-12 0 -24 -1q-126 -8 -215.5 -135.5t-89.5 -317.5z" />
<glyph unicode="r" horiz-adv-x="743" d="M102 0v971h162v-420q6 70 16 127.5t31 116.5t50.5 99t76.5 65.5t107 25.5q98 0 178 -76v-204q-99 200 -236 200q-13 0 -26 -2q-192 -30 -197 -577v-326h-162z" />
<glyph unicode="s" horiz-adv-x="847" d="M41 104v215q59 -118 181 -211q121 -92 248 -92h3q113 1 177 45t73 119q1 9 1 18q0 32 -15 58q-19 34 -55 56.5t-84.5 41t-102 35.5t-107 36t-101 46t-82 61t-51.5 86q-12 35 -12 75q0 19 3 40q31 252 313 252q73 0 138 -22.5t143 -63.5v-211q-46 127 -136 205t-180 78 q-99 0 -159 -48t-66 -116q-1 -9 -1 -17q1 -45 27 -81q32 -43 87 -70.5t123 -52t136.5 -51.5t124.5 -59.5t89 -84.5q29 -45 29 -102q0 -9 -1 -17q-9 -128 -102.5 -205t-259.5 -77q-101 0 -201 29t-180 85z" />
<glyph unicode="t" horiz-adv-x="790" d="M41 971v14h121l139 281h23v-281h239v-14h-239v-652q0 -72 8 -122.5t28 -92.5q20 -40 60 -60q34 -17 83 -17h15q66 3 111.5 52t65.5 121.5t20 161.5h14q0 -372 -274 -372q-138 0 -215.5 91t-77.5 267v623h-121z" />
<glyph unicode="u" horiz-adv-x="1067" d="M102 348v623h160v-652q0 -92 30 -163q30 -70 92 -108q43 -26 96 -26q24 0 50 5q65 12 116 67.5t79.5 127.5t47 161t24.5 158.5t6 130.5v299h162v-971h-162v498q-9 -78 -22.5 -142.5t-41 -135t-65 -119t-98 -80t-136.5 -31.5q-149 0 -243.5 92.5t-94.5 265.5z" />
<glyph unicode="v" horiz-adv-x="888" d="M20 985h162l344 -809l328 809h14l-333 -827l67 -158h-162z" />
<glyph unicode="w" horiz-adv-x="1396" d="M20 985h160l350 -817l170 541l-106 276h162l303 -795l303 795h14l-309 -815l66 -170h-162l-262 686l-170 -541l61 -145h-160z" />
<glyph unicode="x" horiz-adv-x="1046" d="M61 0l383 500l-368 485h178l317 -416l318 416h16l-325 -426l426 -559h-181l-372 489l-375 -489h-17z" />
<glyph unicode="y" horiz-adv-x="888" d="M20 985h162l342 -817l330 817h14l-354 -881q-40 -123 -87 -205t-91.5 -123t-98.5 -55q-38 -10 -71 -10q-14 0 -28 2q-45 6 -103 25v145q13 -12 45 -25.5t80 -20.5q27 -4 53 -4q23 0 46 3q50 6 103 41.5t89 99.5z" />
<glyph unicode="z" horiz-adv-x="897" d="M20 0l652 963l-553 -58v80h737l-649 -960l631 57v-82h-818z" />
<glyph unicode="{" horiz-adv-x="677" d="M123 608v2v15v2h65q59 0 93 49q49 70 39.5 218t-74.5 327q-31 80 -17 149t70 115q56 43 129.5 50t126.5 -26l-8 -14q-50 31 -117.5 23.5t-120.5 -48.5q-106 -90 -49 -245q67 -181 76.5 -333.5t-41.5 -225.5q-22 -34 -62 -50q38 -12 62 -47q51 -73 41.5 -225.5 t-76.5 -335.5q-18 -48 -19.5 -90.5t10.5 -72t26 -48.5t32 -33q53 -41 120.5 -49t117.5 23l8 -12q-47 -29 -102 -29q-89 0 -154 53q-56 46 -70 115t17 149q65 179 74.5 326.5t-39.5 218.5q-34 49 -93 49h-65z" />
<glyph unicode="|" horiz-adv-x="262" d="M123 -340v2114h16v-2114h-16z" />
<glyph unicode="}" horiz-adv-x="679" d="M123 -274l10 12q47 -31 116 -23t120 49q18 14 32.5 33t26.5 48.5t10 72t-20 90.5q-66 184 -76 335.5t41 225.5q25 35 61 47q-39 16 -61 50q-51 74 -41 225.5t76 333.5q58 159 -49 245q-51 41 -120 48.5t-116 -23.5l-10 14q53 33 126.5 26t129.5 -50q57 -45 71 -115 t-16 -149q-66 -179 -76 -327.5t39 -217.5q34 -49 92 -49h68v-2v-15v-2h-68q-58 0 -92 -49q-49 -71 -39 -218.5t76 -326.5q30 -79 16 -149t-71 -115q-65 -53 -154 -53q-55 0 -102 29z" />
<glyph unicode="~" horiz-adv-x="1259" d="M123 446q78 232 272 232q38 0 76 -15.5t65.5 -34.5t65.5 -49l3.5 -3.5t4 -3t4.5 -3.5q49 -39 78 -59.5t80 -40.5t102 -20q88 0 152.5 51.5t95.5 146.5l15 -6q-32 -99 -101.5 -154t-161.5 -55q-41 0 -78 9.5t-73.5 31.5t-58 37.5t-60.5 46.5q-84 65 -119 83q-46 22 -90 22 q-54 0 -98.5 -20t-74.5 -54t-49.5 -69.5t-33.5 -76.5z" />
<glyph unicode="&#xa1;" horiz-adv-x="491" d="M123 -481l117 1079h14l115 -1079h-246zM135 874q0 46 32.5 78.5t78.5 32.5t78 -32.5t32 -78.5t-32 -78t-78 -32t-78.5 32t-32.5 78z" />
<glyph unicode="&#xa2;" horiz-adv-x="1251" d="M125 694q-2 96 27.5 179.5t79 141.5t115.5 101.5t134 66.5t137 29v220h17v-218h29q156 0 356 -104v-174q-38 88 -151.5 173.5t-233.5 88.5v-938q65 -12 135 -6q57 6 111 30.5t88 51t69 68t47.5 60t30.5 48.5l12 -6q-150 -273 -428 -287h-65v-217h-17v219q-93 7 -178 39.5 t-155.5 89.5t-113.5 146t-46 198zM282 716.5q5 -80.5 31 -153.5q42 -120 121 -196t184 -103v934q-34 -4 -49 -8q-73 -17 -131 -63.5t-93 -111.5t-51.5 -141.5t-11.5 -157z" />
<glyph unicode="&#xa3;" horiz-adv-x="1331" d="M123 707v14h186q-18 45 -28.5 73t-24.5 70.5t-21 75t-12.5 71.5t-4.5 76.5t9 73.5q29 133 169 219t306 74q306 -20 400 -307l-17 -19q-25 82 -70 144t-99 96t-109.5 50.5t-112.5 15.5q-136 -2 -222 -86t-79 -230q3 -51 10 -108.5t13 -96t17 -101.5t16 -91h417v-14h-415 q14 -85 18 -149t-2 -136t-33 -139t-74 -131h848v-152h-1001v14q61 47 103 96.5t63.5 96.5t29 98t3 97.5t-18.5 100t-31 99.5t-39 101q-1 3 -2 4h-192z" />
<glyph unicode="&#xa4;" horiz-adv-x="1327" d="M123 717q0 216 168 360l-137 140l10 10l139 -140q76 61 171 94t190 33q96 0 191 -33t169 -94l139 140l13 -10l-140 -140q168 -141 168 -360t-168 -363l140 -137l-13 -12l-139 141q-74 -62 -168.5 -94.5t-191.5 -32.5q-96 0 -191 32.5t-170 94.5l-139 -141l-10 12l137 137 q-168 147 -168 363zM293 717q0 -201 109.5 -341t261.5 -140q153 0 262.5 140t109.5 341t-109.5 341t-262.5 140q-152 0 -261.5 -140t-109.5 -341z" />
<glyph unicode="&#xa5;" horiz-adv-x="1347" d="M123 1434h162l489 -926l434 926h17l-441 -938h318v-15h-318v-149h318v-17h-318v-315h-161v315h-310v17h310v149h-310v15h310z" />
<glyph unicode="&#xa6;" horiz-adv-x="260" d="M123 -340v789h14v-789h-14zM123 985v789h14v-789h-14z" />
<glyph unicode="&#xa7;" horiz-adv-x="1339" d="M123 811q0 105 53 192t146 142q-66 89 -66 207q0 53 14 103.5t47.5 98.5t82.5 84t125.5 58t170.5 22q109 0 225 -37.5t201 -95.5v-211q-69 108 -158 182t-168.5 105t-152.5 31q-289 0 -309 -238q-6 -65 21 -118t76.5 -90t115.5 -68.5t140.5 -58.5t149.5 -55.5 t143.5 -64.5t121 -80t84 -108t31.5 -143q0 -105 -52 -191t-145 -143q65 -87 65 -205q0 -54 -14 -104.5t-47.5 -99.5t-82.5 -85t-125.5 -58t-170.5 -22q-108 0 -224.5 38t-203.5 96v212q103 -160 234.5 -239.5t244.5 -79.5q292 0 312 238q5 65 -21.5 118t-76.5 90 t-116.5 68.5t-141 58.5t-149.5 55.5t-143.5 64.5t-121 80t-84 108t-31.5 143zM215 944q-9 -73 18 -131t81.5 -97.5t124 -72t151 -62.5t156.5 -60t146.5 -74t115.5 -97q103 64 118 185q9 73 -18 131t-81 98t-123.5 72t-151 62t-156.5 60.5t-146.5 74.5t-115.5 97 q-104 -68 -119 -186z" />
<glyph unicode="&#xa8;" horiz-adv-x="802" d="M123 1266q0 37 25.5 63.5t62.5 26.5t63.5 -26.5t26.5 -63.5t-26.5 -63.5t-63.5 -26.5t-62.5 26.5t-25.5 63.5zM500 1266q0 37 26.5 63.5t63.5 26.5t63.5 -26.5t26.5 -63.5t-26.5 -63.5t-63.5 -26.5t-63.5 26.5t-26.5 63.5z" />
<glyph unicode="&#xa9;" horiz-adv-x="1622" d="M123 580q0 187 92 345.5t250.5 250.5t345.5 92t345 -92t250.5 -250.5t92.5 -345.5q0 -186 -92.5 -345t-251 -251.5t-344.5 -92.5q-187 0 -345.5 92.5t-250.5 251t-92 345.5zM139 580q0 -182 90 -336t245 -244t337 -90t337 90t245 244t90 336q0 137 -53 261t-143 214 t-214.5 143t-261.5 53t-261.5 -53t-214.5 -143t-143 -214t-53 -261zM455 590q0 101 55 188t145.5 137t192.5 50q77 0 156 -28.5t108 -53.5v-125q-58 101 -163 152.5t-208 29.5q-65 -14 -112.5 -58.5t-69 -104.5t-24.5 -131t20 -140q41 -138 147 -206t244 -46 q70 9 129.5 55.5t98.5 124.5l8 -4q-104 -213 -342 -213q-156 0 -270.5 110t-114.5 263z" />
<glyph unicode="&#xab;" horiz-adv-x="862" d="M123 600l285 285l10 -11l-273 -274l273 -272l-10 -13zM444 600l285 285l10 -11l-272 -274l272 -272l-10 -13z" />
<glyph unicode="&#xad;" d="M123 709v16h788v-16h-788z" />
<glyph unicode="&#xae;" horiz-adv-x="1622" d="M123 580q0 187 92.5 345.5t250.5 250.5t345 92t345 -92t250.5 -250.5t92.5 -345.5q0 -186 -92.5 -345t-251 -251.5t-344.5 -92.5t-344.5 92.5t-251 251.5t-92.5 345zM139 580q0 -182 90 -336t245 -244t337 -90t337 90t245 244t90 336q0 137 -53 261t-143 214t-214.5 143 t-261.5 53t-261.5 -53t-214.5 -143t-143 -214t-53 -261zM616 223v731h179q84 0 152 -20t112.5 -65.5t44.5 -110.5q0 -70 -49.5 -116.5t-132.5 -66.5l204 -352h-90l-194 340q-14 -2 -47 -2h-97v-338h-82zM698 569h97q57 0 99.5 12t66.5 30.5t38 45t18.5 50t4.5 51.5 t-4.5 51.5t-18.5 50t-38 44.5t-66.5 30t-99.5 12h-97v-377z" />
<glyph unicode="&#xaf;" horiz-adv-x="880" d="M123 1257v17h635v-17h-635z" />
<glyph unicode="&#xb0;" horiz-adv-x="579" d="M123 1337q0 71 48.5 119.5t119.5 48.5q69 0 117.5 -49t48.5 -119q0 -69 -48.5 -117.5t-117.5 -48.5q-70 0 -119 48.5t-49 117.5zM139 1337q0 -62 44.5 -105.5t107.5 -43.5q61 0 105 44t44 105q0 63 -43.5 107.5t-105.5 44.5q-63 0 -107.5 -44.5t-44.5 -107.5z" />
<glyph unicode="&#xb1;" d="M123 145v15h788v-15h-788zM123 709v16h387v385h14v-385h387v-16h-387v-387h-14v387h-387z" />
<glyph unicode="&#xb4;" horiz-adv-x="604" d="M123 1253q128 122 250 230q32 25 56.5 23t39.5 -23q16 -19 10.5 -46.5t-39.5 -47.5q-206 -117 -305 -154z" />
<glyph unicode="&#xb6;" horiz-adv-x="1261" d="M123 1192q0 149 105.5 254.5t254.5 105.5h656v-14h-318v-1458h-16v1458h-305v-1458h-17v749q-149 0 -254.5 106t-105.5 257z" />
<glyph unicode="&#xb8;" horiz-adv-x="602" d="M123 -342l8 12q66 -63 152 -63q100 3 120 123q11 90 -40.5 128t-155.5 -1l-2 6l59 151h12l-55 -141q67 26 126.5 18t98 -52t31.5 -105q-6 -57 -61 -99.5t-131 -42.5q-46 0 -89.5 18.5t-72.5 47.5z" />
<glyph unicode="&#xbb;" horiz-adv-x="864" d="M123 328l274 272l-274 274l12 11l285 -285l-285 -285zM446 328l273 272l-273 274l11 11l284 -285l-284 -285z" />
<glyph unicode="&#xbf;" horiz-adv-x="1067" d="M123 -127q0 74 37 148t94 131t129.5 108t139 85t128.5 56v197h17v-207q-65 -26 -114 -51.5t-102 -68t-86.5 -93t-55 -125.5t-21.5 -166q0 -149 81 -247.5t212 -98.5q116 0 213 79t137 214l12 -8q-36 -109 -102.5 -179t-141.5 -98t-163 -28q-82 0 -155.5 22.5t-132 64.5 t-92.5 110.5t-34 154.5zM549 874q0 46 32 78.5t78 32.5t78.5 -32.5t32.5 -78.5t-32.5 -78t-78.5 -32t-78 32t-32 78z" />
<glyph unicode="&#xc0;" horiz-adv-x="1134" d="M20 0l447 1257l-68 177h162l553 -1434h-162l-213 551h-508l-194 -551h-17zM238 565h495l-258 672zM331.5 1845.5q-5.5 27.5 10.5 46.5q15 21 39.5 23t56.5 -23q139 -123 250 -229l-12 -18q-104 38 -305 153q-34 20 -39.5 47.5z" />
<glyph unicode="&#xc1;" horiz-adv-x="1134" d="M20 0l447 1257l-68 177h162l553 -1434h-162l-213 551h-508l-194 -551h-17zM238 565h495l-258 672zM360 1663q111 106 250 229q32 25 57 23t40 -23q16 -19 10.5 -46.5t-39.5 -47.5q-201 -115 -305 -153z" />
<glyph unicode="&#xc2;" horiz-adv-x="1134" d="M20 0l447 1257l-68 177h162l553 -1434h-162l-213 551h-508l-194 -551h-17zM238 565h495l-258 672zM242 1593l262 262l262 -262l-10 -10l-252 162l-252 -162z" />
<glyph unicode="&#xc3;" horiz-adv-x="1134" d="M20 0l447 1257l-68 177h162l553 -1434h-162l-213 551h-508l-194 -551h-17zM195 1581q29 89 71 131.5t111 42.5q64 0 169.5 -42t162.5 -40q34 0 56 21t40 80l16 -5q-28 -85 -69.5 -133.5t-106.5 -48.5q-68 0 -183 42.5t-153 41.5q-41 0 -60 -19t-38 -75zM238 565h495 l-258 672z" />
<glyph unicode="&#xc4;" horiz-adv-x="1134" d="M20 0l447 1257l-68 177h162l553 -1434h-162l-213 551h-508l-194 -551h-17zM225 1675q0 37 25.5 63.5t62.5 26.5t63.5 -26.5t26.5 -63.5t-26.5 -63.5t-63.5 -26.5t-62.5 26.5t-25.5 63.5zM238 565h495l-258 672zM602 1675q0 37 26.5 63.5t63.5 26.5t63.5 -26.5t26.5 -63.5 t-26.5 -63.5t-63.5 -26.5t-63.5 26.5t-26.5 63.5z" />
<glyph unicode="&#xc5;" horiz-adv-x="1134" d="M20 0l447 1257l-68 177h162l553 -1434h-162l-213 551h-508l-194 -551h-17zM238 565h495l-258 672zM328 1720q0 69 48.5 118.5t117.5 49.5q70 0 119 -49.5t49 -118.5q0 -70 -49 -119t-119 -49q-69 0 -117.5 49t-48.5 119zM344 1720q0 -63 44 -107t106 -44q63 0 107 44 t44 107q0 62 -44 106t-107 44q-62 0 -106 -44t-44 -106z" />
<glyph unicode="&#xc6;" horiz-adv-x="1699" d="M20 0l854 1350v84h721v-127l-559 110v-604l516 45v-104l-516 45v-785l582 111v-125h-744v551h-489l-348 -551h-17zM395 565h479v760z" />
<glyph unicode="&#xc7;" horiz-adv-x="1507" d="M41 721q0 149 64.5 285.5t170 234t247 155.5t290.5 58q152 0 307 -56t211 -104v-243q-116 197 -320.5 297.5t-406.5 56.5q-102 -22 -182 -82.5t-129 -146t-73.5 -188t-19.5 -214t38 -219.5q83 -270 290 -403t478 -93q139 22 254 112t192 243l14 -8q-202 -416 -669 -416 h-29l-45 -117q48 24 95.5 21t84.5 -21.5t58.5 -56t17.5 -82.5q-6 -57 -62.5 -99.5t-132.5 -42.5q-91 0 -161 66l8 12q66 -63 151 -63q56 1 85 36t36 87q12 90 -40 128t-154 -1l-2 6l49 127q-143 7 -274.5 68t-228.5 158t-154.5 229t-57.5 276z" />
<glyph unicode="&#xc8;" horiz-adv-x="948" d="M123 0v1434h721v-127l-559 110v-604l516 45v-104l-516 45v-785l581 111v-125h-743zM300.5 1845.5q-5.5 27.5 10.5 46.5q15 21 40 23t57 -23q123 -109 249 -229l-12 -18q-104 38 -305 153q-34 20 -39.5 47.5z" />
<glyph unicode="&#xc9;" horiz-adv-x="948" d="M123 0v1434h721v-127l-559 110v-604l516 45v-104l-516 45v-785l581 111v-125h-743zM332 1663q111 106 250 229q32 25 56.5 23t39.5 -23q16 -19 10.5 -46.5t-39.5 -47.5q-201 -115 -305 -153z" />
<glyph unicode="&#xca;" horiz-adv-x="948" d="M123 0v1434h721v-127l-559 110v-604l516 45v-104l-516 45v-785l581 111v-125h-743zM231 1593l263 262l262 -262l-11 -10l-251 162l-252 -162z" />
<glyph unicode="&#xcb;" horiz-adv-x="948" d="M123 0v1434h721v-127l-559 110v-604l516 45v-104l-516 45v-785l581 111v-125h-743zM215 1675q0 37 25.5 63.5t62.5 26.5t63.5 -26.5t26.5 -63.5t-26.5 -63.5t-63.5 -26.5t-62.5 26.5t-25.5 63.5zM592 1675q0 37 26.5 63.5t63.5 26.5t63.5 -26.5t26.5 -63.5t-26.5 -63.5 t-63.5 -26.5t-63.5 26.5t-26.5 63.5z" />
<glyph unicode="&#xcc;" horiz-adv-x="407" d="M30.5 1845.5q-5.5 27.5 10.5 46.5q15 21 39.5 23t56.5 -23q139 -123 250 -229l-12 -18q-104 38 -305 153q-34 20 -39.5 47.5zM123 0v1434h162v-1434h-162z" />
<glyph unicode="&#xcd;" horiz-adv-x="407" d="M20 1663q111 106 250 229q32 25 57 23t40 -23q16 -19 10.5 -46.5t-39.5 -47.5q-201 -115 -305 -153zM123 0v1434h162v-1434h-162z" />
<glyph unicode="&#xce;" horiz-adv-x="407" d="M-59 1593l262 262l262 -262l-10 -10l-252 162l-252 -162zM123 0v1434h162v-1434h-162z" />
<glyph unicode="&#xcf;" horiz-adv-x="407" d="M-76 1675q0 37 25.5 63.5t62.5 26.5t63.5 -26.5t26.5 -63.5t-26.5 -63.5t-63.5 -26.5t-62.5 26.5t-25.5 63.5zM123 0v1434h162v-1434h-162zM301 1675q0 37 26.5 63.5t63.5 26.5t63.5 -26.5t26.5 -63.5t-26.5 -63.5t-63.5 -26.5t-63.5 26.5t-26.5 63.5z" />
<glyph unicode="&#xd0;" horiz-adv-x="1449" d="M-57 709v16h178v709h467q175 0 328 -55.5t261 -151.5t170 -228.5t62 -281.5q0 -150 -62 -283t-170 -228t-261 -150.5t-328 -55.5h-467v709h-178zM283 14h305q150 0 275.5 57t208.5 153.5t129 223.5t46 269q0 190 -78 348t-230 255t-351 97h-305v-692h448v-16h-448v-695z " />
<glyph unicode="&#xd1;" horiz-adv-x="1294" d="M0 1434h207l928 -1176v1176h16v-1434h-31l-975 1247v-1247h-14v1268zM371 1581q29 89 71 131.5t111 42.5q64 0 169.5 -42t162.5 -40q34 0 56 21t40 80l16 -5q-28 -85 -69.5 -133.5t-106.5 -48.5q-68 0 -183 42.5t-153 41.5q-41 0 -60 -19t-38 -75z" />
<glyph unicode="&#xd2;" horiz-adv-x="1613" d="M41 721q0 149 63 285.5t167.5 234t245 155.5t290.5 58q149 0 289.5 -58t245 -155.5t168 -234t63.5 -285.5q0 -148 -63.5 -284t-168 -233.5t-245 -155.5t-289.5 -58q-150 0 -290.5 58t-245 155.5t-167.5 233.5t-63 284zM213 721q0 -141 43 -270.5t119 -228t188.5 -157.5 t243.5 -59q173 0 310.5 100.5t210.5 263t73 351.5q0 142 -43.5 271.5t-119.5 228t-188.5 157t-242.5 58.5q-131 0 -243.5 -58.5t-188.5 -157t-119 -228t-43 -271.5zM612 1845.5q-5 27.5 11 46.5q15 21 39.5 23t56.5 -23q139 -123 250 -229l-13 -18q-104 38 -305 153 q-34 20 -39 47.5z" />
<glyph unicode="&#xd3;" horiz-adv-x="1613" d="M41 721q0 149 63 285.5t167.5 234t245 155.5t290.5 58q149 0 289.5 -58t245 -155.5t168 -234t63.5 -285.5q0 -148 -63.5 -284t-168 -233.5t-245 -155.5t-289.5 -58q-150 0 -290.5 58t-245 155.5t-167.5 233.5t-63 284zM213 721q0 -141 43 -270.5t119 -228t188.5 -157.5 t243.5 -59q173 0 310.5 100.5t210.5 263t73 351.5q0 142 -43.5 271.5t-119.5 228t-188.5 157t-242.5 58.5q-131 0 -243.5 -58.5t-188.5 -157t-119 -228t-43 -271.5zM664 1663q126 120 249 229q32 25 57 23t40 -23q16 -19 10.5 -46.5t-39.5 -47.5q-201 -115 -305 -153z" />
<glyph unicode="&#xd4;" horiz-adv-x="1613" d="M41 721q0 149 63 285.5t167.5 234t245 155.5t290.5 58q149 0 289.5 -58t245 -155.5t168 -234t63.5 -285.5q0 -148 -63.5 -284t-168 -233.5t-245 -155.5t-289.5 -58q-150 0 -290.5 58t-245 155.5t-167.5 233.5t-63 284zM213 721q0 -141 43 -270.5t119 -228t188.5 -157.5 t243.5 -59q173 0 310.5 100.5t210.5 263t73 351.5q0 142 -43.5 271.5t-119.5 228t-188.5 157t-242.5 58.5q-131 0 -243.5 -58.5t-188.5 -157t-119 -228t-43 -271.5zM545 1593l262 262l262 -262l-10 -10l-252 162l-252 -162z" />
<glyph unicode="&#xd5;" horiz-adv-x="1613" d="M41 721q0 149 63 285.5t167.5 234t245 155.5t290.5 58q149 0 289.5 -58t245 -155.5t168 -234t63.5 -285.5q0 -148 -63.5 -284t-168 -233.5t-245 -155.5t-289.5 -58q-150 0 -290.5 58t-245 155.5t-167.5 233.5t-63 284zM213 721q0 -141 43 -270.5t119 -228t188.5 -157.5 t243.5 -59q173 0 310.5 100.5t210.5 263t73 351.5q0 142 -43.5 271.5t-119.5 228t-188.5 157t-242.5 58.5q-131 0 -243.5 -58.5t-188.5 -157t-119 -228t-43 -271.5zM494 1581q29 89 71 131.5t111 42.5q64 0 169.5 -42t162.5 -40q34 0 56 21t40 80l16 -5 q-28 -85 -69.5 -133.5t-106.5 -48.5q-68 0 -183 42.5t-153 41.5q-41 0 -60 -19t-38 -75z" />
<glyph unicode="&#xd6;" horiz-adv-x="1613" d="M41 721q0 149 63 285.5t167.5 234t245 155.5t290.5 58q149 0 289.5 -58t245 -155.5t168 -234t63.5 -285.5q0 -148 -63.5 -284t-168 -233.5t-245 -155.5t-289.5 -58q-150 0 -290.5 58t-245 155.5t-167.5 233.5t-63 284zM213 721q0 -141 43 -270.5t119 -228t188.5 -157.5 t243.5 -59q173 0 310.5 100.5t210.5 263t73 351.5q0 142 -43.5 271.5t-119.5 228t-188.5 157t-242.5 58.5q-131 0 -243.5 -58.5t-188.5 -157t-119 -228t-43 -271.5zM528 1675q0 37 25.5 63.5t62.5 26.5t64 -26.5t27 -63.5t-27 -63.5t-64 -26.5t-62.5 26.5t-25.5 63.5z M905 1675q0 37 26.5 63.5t63.5 26.5t63.5 -26.5t26.5 -63.5t-26.5 -63.5t-63.5 -26.5t-63.5 26.5t-26.5 63.5z" />
<glyph unicode="&#xd7;" horiz-adv-x="815" d="M123 444l272 273l-272 272l10 12l275 -274l272 274l12 -12l-274 -272l274 -273l-12 -12l-272 275l-275 -275z" />
<glyph unicode="&#xd8;" horiz-adv-x="1613" d="M41 721q0 149 63 285.5t167.5 234t244.5 155.5t289 58q145 0 279.5 -53t240.5 -148l170 170l12 -12l-170 -168q110 -102 172 -237t62 -285q0 -148 -63 -284t-167.5 -233.5t-245 -155.5t-290.5 -58q-144 0 -278.5 52.5t-241.5 147.5l-170 -170l-11 11l170 170 q-110 102 -171.5 236.5t-61.5 283.5zM213 721q0 -258 129 -453l920 920q-81 116 -198 182t-259 66q-130 0 -242 -58.5t-188 -157t-119 -228t-43 -271.5zM350 256q80 -117 197 -183.5t258 -66.5q131 0 243.5 59t188.5 157.5t119 228t43 270.5q0 256 -129 453z" />
<glyph unicode="&#xd9;" horiz-adv-x="1298" d="M123 530v904h162v-904q0 -256 125 -396.5t346 -121.5q92 7 169 49.5t128 107t79.5 146t28.5 168.5v951h15v-951q0 -216 -138 -354.5t-354 -138.5q-117 0 -217 32.5t-177.5 97t-122 169.5t-44.5 241zM536 1845.5q-5 27.5 11 46.5q15 21 39.5 23t56.5 -23 q139 -123 250 -229l-12 -18q-107 39 -306 153q-34 20 -39 47.5z" />
<glyph unicode="&#xda;" horiz-adv-x="1298" d="M123 530v904h162v-904q0 -256 125 -396.5t346 -121.5q92 7 169 49.5t128 107t79.5 146t28.5 168.5v951h15v-951q0 -216 -138 -354.5t-354 -138.5q-117 0 -217 32.5t-177.5 97t-122 169.5t-44.5 241zM567 1663q111 106 250 229q32 25 56.5 23t39.5 -23q16 -19 11 -46.5 t-39 -47.5q-201 -115 -305 -153z" />
<glyph unicode="&#xdb;" horiz-adv-x="1298" d="M123 530v904h162v-904q0 -256 125 -396.5t346 -121.5q92 7 169 49.5t128 107t79.5 146t28.5 168.5v951h15v-951q0 -216 -138 -354.5t-354 -138.5q-117 0 -217 32.5t-177.5 97t-122 169.5t-44.5 241zM469 1593l262 262l262 -262l-10 -10l-252 162l-252 -162z" />
<glyph unicode="&#xdc;" horiz-adv-x="1298" d="M123 530v904h162v-904q0 -256 125 -396.5t346 -121.5q92 7 169 49.5t128 107t79.5 146t28.5 168.5v951h15v-951q0 -216 -138 -354.5t-354 -138.5q-117 0 -217 32.5t-177.5 97t-122 169.5t-44.5 241zM453 1675q0 37 25.5 63.5t62.5 26.5t63.5 -26.5t26.5 -63.5 t-26.5 -63.5t-63.5 -26.5t-62.5 26.5t-25.5 63.5zM829 1675q0 37 27 63.5t64 26.5t63.5 -26.5t26.5 -63.5t-26.5 -63.5t-63.5 -26.5t-64 26.5t-27 63.5z" />
<glyph unicode="&#xdd;" horiz-adv-x="1142" d="M20 1434h162l490 -926l434 926h16l-440 -938v-496h-162v496zM510 1663q111 106 250 229q32 25 56.5 23t39.5 -23q16 -19 10.5 -46.5t-39.5 -47.5q-201 -115 -305 -153z" />
<glyph unicode="&#xde;" horiz-adv-x="1177" d="M123 0v1434h160v-299h102q206 0 353.5 -43.5t232 -138.5t84.5 -236t-84.5 -236t-232 -138.5t-353.5 -43.5h-102v-299h-160zM283 313h102q510 0 510 404q0 403 -510 403h-102v-807z" />
<glyph unicode="&#xdf;" horiz-adv-x="1523" d="M123 0v868q0 112 35.5 209t95.5 165.5t138.5 117.5t165.5 72.5t175 23.5q204 0 350 -95.5t154 -225.5q3 -62 -19.5 -112.5t-51 -80.5t-87.5 -60t-90.5 -41t-99.5 -32q-17 -5 -25 -8q76 20 148 15t135.5 -25.5t114 -61.5t84.5 -93t47.5 -121.5t1.5 -145.5 q-11 -68 -55 -134.5t-111.5 -121.5t-164.5 -89t-204 -34q-101 0 -193 33.5t-155.5 79.5t-130.5 114l14 16q33 -37 71.5 -70.5t96 -70.5t132 -59.5t153.5 -22.5q90 0 163 28.5t119 78t72.5 110t32.5 129.5q14 150 -40 260.5t-166 152t-279 -16.5l-5 14h-2q191 68 273.5 158 t64.5 223q-15 119 -116.5 203t-241.5 84q-62 0 -122 -13.5t-118.5 -45t-102 -78t-70.5 -118t-27 -159.5v-1020h-160z" />
<glyph unicode="&#xe0;" horiz-adv-x="1026" d="M41 305q0 100 44.5 175.5t114 114.5t154.5 52.5t164.5 -2t146 -58t97.5 -106.5v191q0 122 -62.5 207.5t-167.5 85.5q-98 0 -167.5 -50t-94.5 -133l-14 6q26 88 101.5 142.5t193.5 54.5q53 0 104 -11t100.5 -36.5t86.5 -63.5t59.5 -97t22.5 -132v-645h-23l-139 287 q-31 -126 -120.5 -211.5t-233.5 -85.5q-149 0 -258 91t-109 224zM188 324q0 -125 78.5 -210t186.5 -85q69 0 127 32t96 84.5t60.5 116.5t25.5 131v49q-17 49 -57 89t-92 61t-110.5 29t-114 -8t-100.5 -48.5t-72.5 -95t-27.5 -145.5zM390.5 1374.5q-5.5 27.5 10.5 46.5 q15 21 40 23t57 -23q139 -123 250 -229l-13 -18q-104 38 -305 153q-34 20 -39.5 47.5z" />
<glyph unicode="&#xe1;" horiz-adv-x="1026" d="M41 305q0 100 44.5 175.5t114 114.5t154.5 52.5t164.5 -2t146 -58t97.5 -106.5v191q0 122 -62.5 207.5t-167.5 85.5q-98 0 -167.5 -50t-94.5 -133l-14 6q26 88 101.5 142.5t193.5 54.5q53 0 104 -11t100.5 -36.5t86.5 -63.5t59.5 -97t22.5 -132v-645h-23l-139 287 q-31 -126 -120.5 -211.5t-233.5 -85.5q-149 0 -258 91t-109 224zM188 324q0 -125 78.5 -210t186.5 -85q69 0 127 32t96 84.5t60.5 116.5t25.5 131v49q-17 49 -57 89t-92 61t-110.5 29t-114 -8t-100.5 -48.5t-72.5 -95t-27.5 -145.5zM467 1192q111 106 250 229q32 25 56.5 23 t39.5 -23q16 -19 10.5 -46.5t-39.5 -47.5q-201 -115 -305 -153z" />
<glyph unicode="&#xe2;" horiz-adv-x="1026" d="M41 305q0 100 44.5 175.5t114 114.5t154.5 52.5t164.5 -2t146 -58t97.5 -106.5v191q0 122 -62.5 207.5t-167.5 85.5q-98 0 -167.5 -50t-94.5 -133l-14 6q26 88 101.5 142.5t193.5 54.5q53 0 104 -11t100.5 -36.5t86.5 -63.5t59.5 -97t22.5 -132v-645h-23l-139 287 q-31 -126 -120.5 -211.5t-233.5 -85.5q-149 0 -258 91t-109 224zM188 324q0 -125 78.5 -210t186.5 -85q69 0 127 32t96 84.5t60.5 116.5t25.5 131v49q-17 49 -57 89t-92 61t-110.5 29t-114 -8t-100.5 -48.5t-72.5 -95t-27.5 -145.5zM322 1122l262 262l262 -262l-10 -10 l-252 162l-252 -162z" />
<glyph unicode="&#xe3;" horiz-adv-x="1026" d="M41 305q0 100 44.5 175.5t114 114.5t154.5 52.5t164.5 -2t146 -58t97.5 -106.5v191q0 122 -62.5 207.5t-167.5 85.5q-98 0 -167.5 -50t-94.5 -133l-14 6q26 88 101.5 142.5t193.5 54.5q53 0 104 -11t100.5 -36.5t86.5 -63.5t59.5 -97t22.5 -132v-645h-23l-139 287 q-31 -126 -120.5 -211.5t-233.5 -85.5q-149 0 -258 91t-109 224zM188 324q0 -125 78.5 -210t186.5 -85q69 0 127 32t96 84.5t60.5 116.5t25.5 131v49q-17 49 -57 89t-92 61t-110.5 29t-114 -8t-100.5 -48.5t-72.5 -95t-27.5 -145.5zM250 1110q29 89 71 131.5t111 42.5 q64 0 169.5 -42t162.5 -40q34 0 56 21t40 80l17 -5q-60 -182 -177 -182q-68 0 -182.5 42.5t-152.5 41.5q-41 0 -60.5 -19t-38.5 -75z" />
<glyph unicode="&#xe4;" horiz-adv-x="1026" d="M41 305q0 100 44.5 175.5t114 114.5t154.5 52.5t164.5 -2t146 -58t97.5 -106.5v191q0 122 -62.5 207.5t-167.5 85.5q-98 0 -167.5 -50t-94.5 -133l-14 6q26 88 101.5 142.5t193.5 54.5q53 0 104 -11t100.5 -36.5t86.5 -63.5t59.5 -97t22.5 -132v-645h-23l-139 287 q-31 -126 -120.5 -211.5t-233.5 -85.5q-149 0 -258 91t-109 224zM188 324q0 -125 78.5 -210t186.5 -85q69 0 127 32t96 84.5t60.5 116.5t25.5 131v49q-17 49 -57 89t-92 61t-110.5 29t-114 -8t-100.5 -48.5t-72.5 -95t-27.5 -145.5zM305 1204q0 37 25.5 63.5t62.5 26.5 t63.5 -26.5t26.5 -63.5t-26.5 -63.5t-63.5 -26.5t-62.5 26.5t-25.5 63.5zM682 1204q0 37 26.5 63.5t63.5 26.5t63.5 -26.5t26.5 -63.5t-26.5 -63.5t-63.5 -26.5t-63.5 26.5t-26.5 63.5z" />
<glyph unicode="&#xe5;" horiz-adv-x="1026" d="M41 305q0 100 44.5 175.5t114 114.5t154.5 52.5t164.5 -2t146 -58t97.5 -106.5v191q0 122 -62.5 207.5t-167.5 85.5q-98 0 -167.5 -50t-94.5 -133l-14 6q26 88 101.5 142.5t193.5 54.5q53 0 104 -11t100.5 -36.5t86.5 -63.5t59.5 -97t22.5 -132v-645h-23l-139 287 q-31 -126 -120.5 -211.5t-233.5 -85.5q-149 0 -258 91t-109 224zM188 324q0 -125 78.5 -210t186.5 -85q69 0 127 32t96 84.5t60.5 116.5t25.5 131v49q-17 49 -57 89t-92 61t-110.5 29t-114 -8t-100.5 -48.5t-72.5 -95t-27.5 -145.5zM397 1249q0 69 48.5 118.5t117.5 49.5 q70 0 119 -49.5t49 -118.5q0 -71 -48.5 -119.5t-119.5 -48.5q-69 0 -117.5 49t-48.5 119zM414 1249q0 -63 43.5 -107t105.5 -44q63 0 107.5 44t44.5 107q0 62 -44.5 106t-107.5 44q-61 0 -105 -44t-44 -106z" />
<glyph unicode="&#xe6;" horiz-adv-x="1810" d="M41 305q0 100 44.5 175.5t114 114.5t154.5 52.5t164.5 -2t146 -58t97.5 -106.5v191q0 122 -62.5 207.5t-167.5 85.5q-98 0 -167.5 -50t-94.5 -133l-12 6q26 88 101 142.5t192 54.5q107 0 200.5 -45.5t139.5 -138.5q78 85 191.5 132t222.5 52q69 4 139 -12t135.5 -52 t111.5 -103t56 -156h-805q-43 -174 12 -328q57 -160 179 -242t278 -67q58 7 111 31t89 52.5t68.5 66.5t48 61.5t29.5 48.5l12 -9q-149 -272 -428 -286q-94 -4 -184.5 18.5t-169.5 69t-136 125.5t-75 180q-3 -69 -26 -135.5t-65.5 -125.5t-114 -95.5t-160.5 -36.5 q-151 0 -260 90.5t-109 224.5zM188 324q0 -125 79 -210t188 -85q93 0 165 58t107 143.5t35 179.5v30q-14 43 -47 79.5t-75.5 60t-93 34.5t-100.5 8.5t-97 -22.5t-82.5 -54.5t-57 -91.5t-21.5 -130zM946 678h651q-9 67 -42.5 125t-83.5 98.5t-118 57.5t-141 4 q-101 -19 -168.5 -96.5t-97.5 -188.5z" />
<glyph unicode="&#xe7;" horiz-adv-x="1085" d="M43 465q-3 102 30.5 190t89.5 147.5t128.5 101.5t146.5 61.5t144 19.5q154 0 354 -102v-176q-19 45 -64.5 95.5t-105.5 92.5t-135 62.5t-144 5.5q-73 -17 -131.5 -63.5t-93 -112t-51.5 -142t-11.5 -157.5t31.5 -154q57 -161 178.5 -242.5t278.5 -66.5q206 23 346 260 l13 -6q-155 -276 -431 -289h-61l-45 -117q67 26 126.5 18t98 -52t31.5 -105q-6 -57 -61.5 -99.5t-131.5 -42.5q-46 0 -89 18.5t-72 47.5l8 12q66 -63 151 -63q54 1 83 36t36 87q13 90 -38.5 128t-155.5 -1l-2 6l51 129q-95 5 -181.5 37t-158 88.5t-115.5 146.5t-47 201z" />
<glyph unicode="&#xe8;" horiz-adv-x="1087" d="M43 465q-3 102 30.5 189t89.5 145.5t129 100.5t146 62t144 23q68 4 138 -12t135 -52t111 -103t56 -156h-805q-40 -176 14 -328q57 -161 178.5 -242.5t278.5 -64.5q57 6 110 29.5t88.5 52t68 66.5t48 61.5t29.5 48.5l15 -6q-155 -275 -431 -289q-81 -4 -161 12 t-153.5 53.5t-130 93t-91.5 137.5t-37 179zM221 678h653q-21 139 -131 225.5t-256 59.5q-99 -19 -167 -96.5t-99 -188.5zM390.5 1374.5q-5.5 27.5 10.5 46.5q15 21 40 23t57 -23q139 -123 250 -229l-13 -18q-104 38 -305 153q-34 20 -39.5 47.5z" />
<glyph unicode="&#xe9;" horiz-adv-x="1087" d="M43 465q-3 102 30.5 189t89.5 145.5t129 100.5t146 62t144 23q68 4 138 -12t135 -52t111 -103t56 -156h-805q-40 -176 14 -328q57 -161 178.5 -242.5t278.5 -64.5q57 6 110 29.5t88.5 52t68 66.5t48 61.5t29.5 48.5l15 -6q-155 -275 -431 -289q-81 -4 -161 12 t-153.5 53.5t-130 93t-91.5 137.5t-37 179zM221 678h653q-21 139 -131 225.5t-256 59.5q-99 -19 -167 -96.5t-99 -188.5zM401 1192q111 106 250 229q32 25 57 23t40 -23q16 -19 10.5 -46.5t-39.5 -47.5q-201 -115 -305 -153z" />
<glyph unicode="&#xea;" horiz-adv-x="1087" d="M43 465q-3 102 30.5 189t89.5 145.5t129 100.5t146 62t144 23q68 4 138 -12t135 -52t111 -103t56 -156h-805q-40 -176 14 -328q57 -161 178.5 -242.5t278.5 -64.5q57 6 110 29.5t88.5 52t68 66.5t48 61.5t29.5 48.5l15 -6q-155 -275 -431 -289q-81 -4 -161 12 t-153.5 53.5t-130 93t-91.5 137.5t-37 179zM221 678h653q-21 139 -131 225.5t-256 59.5q-99 -19 -167 -96.5t-99 -188.5zM322 1122l262 262l262 -262l-10 -10l-252 162l-252 -162z" />
<glyph unicode="&#xeb;" horiz-adv-x="1087" d="M43 465q-3 102 30.5 189t89.5 145.5t129 100.5t146 62t144 23q68 4 138 -12t135 -52t111 -103t56 -156h-805q-40 -176 14 -328q57 -161 178.5 -242.5t278.5 -64.5q57 6 110 29.5t88.5 52t68 66.5t48 61.5t29.5 48.5l15 -6q-155 -275 -431 -289q-81 -4 -161 12 t-153.5 53.5t-130 93t-91.5 137.5t-37 179zM221 678h653q-21 139 -131 225.5t-256 59.5q-99 -19 -167 -96.5t-99 -188.5zM285 1204q0 37 25.5 63.5t62.5 26.5t63.5 -26.5t26.5 -63.5t-26.5 -63.5t-63.5 -26.5t-62.5 26.5t-25.5 63.5zM662 1204q0 37 26.5 63.5t63.5 26.5 t63.5 -26.5t26.5 -63.5t-26.5 -63.5t-63.5 -26.5t-63.5 26.5t-26.5 63.5z" />
<glyph unicode="&#xec;" horiz-adv-x="364" d="M9.5 1374.5q-5.5 27.5 10.5 46.5q15 21 40 23t57 -23q139 -123 250 -229l-13 -18q-104 38 -305 153q-34 20 -39.5 47.5zM102 0v985h160v-985h-160z" />
<glyph unicode="&#xed;" horiz-adv-x="364" d="M0 1192q111 106 250 229q32 25 56.5 23t39.5 -23q16 -19 10.5 -46.5t-39.5 -47.5q-201 -115 -305 -153zM102 0v985h160v-985h-160z" />
<glyph unicode="&#xee;" horiz-adv-x="364" d="M-80 1122l262 262l262 -262l-10 -10l-252 162l-252 -162zM102 0v985h160v-985h-160z" />
<glyph unicode="&#xef;" horiz-adv-x="364" d="M-96 1204q0 37 25.5 63.5t62.5 26.5t63.5 -26.5t26.5 -63.5t-26.5 -63.5t-63.5 -26.5t-62.5 26.5t-25.5 63.5zM102 0v985h160v-985h-160zM281 1204q0 37 26.5 63.5t63.5 26.5t63.5 -26.5t26.5 -63.5t-26.5 -63.5t-63.5 -26.5t-63.5 26.5t-26.5 63.5z" />
<glyph unicode="&#xf0;" horiz-adv-x="1110" d="M41 479q0 135 65 242t166.5 162t216.5 55q88 0 164.5 -29.5t130 -78t89.5 -105.5t53 -117q0 204 -50.5 398t-162.5 309l-322 -158v21l307 151q-116 109 -274 109q-77 0 -156 -29.5t-118 -79.5l-11 10q43 58 124.5 86.5t160.5 28.5q177 0 319 -104l236 116v-20l-219 -109 q145 -112 227 -307.5t82 -413.5q0 -111 -22 -205t-61 -161.5t-90 -118.5t-112.5 -81t-124.5 -45t-129 -15q-143 0 -256 67.5t-173 178.5t-60 243zM180 459q0 -93 22.5 -173t65.5 -142t113.5 -98t159.5 -36q131 0 219 71.5t127 190.5t39 279q-5 41 -24.5 88.5t-55 96.5 t-81 88t-109 64t-132.5 25q-147 0 -245.5 -130.5t-98.5 -323.5z" />
<glyph unicode="&#xf1;" horiz-adv-x="1087" d="M102 0v971h162v-494q6 54 14.5 101t23 100.5t33 96t46.5 83t62.5 67.5t81.5 43.5t102 16.5q132 0 224.5 -91t111.5 -267q60 -608 63 -627h-164q-44 503 -59 655q-5 49 -17 93.5t-34 86t-51 70t-72 41t-94 2.5q-65 -12 -115.5 -67.5t-79 -127.5t-46.5 -161.5t-24 -158.5 t-6 -130v-303h-162zM250 1110q29 89 71 131.5t111 42.5q64 0 169.5 -42t162.5 -40q34 0 56 21t40 80l17 -5q-60 -182 -177 -182q-68 0 -182.5 42.5t-152.5 41.5q-41 0 -60.5 -19t-38.5 -75z" />
<glyph unicode="&#xf2;" horiz-adv-x="1163" d="M41 487q0 112 48 208t126 158t173.5 97t193.5 35t193.5 -35t173 -97t125.5 -158t48 -208t-48 -208t-125.5 -158t-173 -96.5t-193.5 -34.5t-193.5 34.5t-173.5 96.5t-126 158t-48 208zM209 487q0 -201 110 -341t263 -140t262.5 140t109.5 341t-109.5 341.5t-262.5 140.5 t-263 -140.5t-110 -341.5zM386.5 1374.5q-5.5 27.5 10.5 46.5q15 21 40 23t57 -23q123 -109 249 -229l-12 -18q-104 38 -305 153q-34 20 -39.5 47.5z" />
<glyph unicode="&#xf3;" horiz-adv-x="1163" d="M41 487q0 112 48 208t126 158t173.5 97t193.5 35t193.5 -35t173 -97t125.5 -158t48 -208t-48 -208t-125.5 -158t-173 -96.5t-193.5 -34.5t-193.5 34.5t-173.5 96.5t-126 158t-48 208zM209 487q0 -201 110 -341t263 -140t262.5 140t109.5 341t-109.5 341.5t-262.5 140.5 t-263 -140.5t-110 -341.5zM438 1192q111 106 250 229q32 25 56.5 23t39.5 -23q16 -19 11 -46.5t-39 -47.5q-201 -115 -305 -153z" />
<glyph unicode="&#xf4;" horiz-adv-x="1163" d="M41 487q0 112 48 208t126 158t173.5 97t193.5 35t193.5 -35t173 -97t125.5 -158t48 -208t-48 -208t-125.5 -158t-173 -96.5t-193.5 -34.5t-193.5 34.5t-173.5 96.5t-126 158t-48 208zM209 487q0 -201 110 -341t263 -140t262.5 140t109.5 341t-109.5 341.5t-262.5 140.5 t-263 -140.5t-110 -341.5zM319 1122l263 262l262 -262l-10 -10l-252 162l-252 -162z" />
<glyph unicode="&#xf5;" horiz-adv-x="1163" d="M41 487q0 112 48 208t126 158t173.5 97t193.5 35t193.5 -35t173 -97t125.5 -158t48 -208t-48 -208t-125.5 -158t-173 -96.5t-193.5 -34.5t-193.5 34.5t-173.5 96.5t-126 158t-48 208zM209 487q0 -201 110 -341t263 -140t262.5 140t109.5 341t-109.5 341.5t-262.5 140.5 t-263 -140.5t-110 -341.5zM268 1110q29 89 71.5 131.5t111.5 42.5q64 0 169 -42t162 -40q35 0 57 21.5t40 79.5l16 -5q-28 -85 -69.5 -133.5t-106.5 -48.5q-68 0 -183 42.5t-153 41.5q-41 0 -60 -19t-38 -75z" />
<glyph unicode="&#xf6;" horiz-adv-x="1163" d="M41 487q0 112 48 208t126 158t173.5 97t193.5 35t193.5 -35t173 -97t125.5 -158t48 -208t-48 -208t-125.5 -158t-173 -96.5t-193.5 -34.5t-193.5 34.5t-173.5 96.5t-126 158t-48 208zM209 487q0 -201 110 -341t263 -140t262.5 140t109.5 341t-109.5 341.5t-262.5 140.5 t-263 -140.5t-110 -341.5zM303 1204q0 37 25.5 63.5t62.5 26.5t63.5 -26.5t26.5 -63.5t-26.5 -63.5t-63.5 -26.5t-62.5 26.5t-25.5 63.5zM680 1204q0 37 26.5 63.5t63.5 26.5t63.5 -26.5t26.5 -63.5t-26.5 -63.5t-63.5 -26.5t-63.5 26.5t-26.5 63.5z" />
<glyph unicode="&#xf7;" d="M123 709v16h788v-16h-788zM432 362q0 36 24.5 61.5t59.5 25.5q36 0 61 -25.5t25 -61.5t-25 -61t-61 -25q-35 0 -59.5 25.5t-24.5 60.5zM432 1071q0 35 24.5 60.5t59.5 25.5q36 0 61 -25t25 -61t-25 -61t-61 -25q-35 0 -59.5 25.5t-24.5 60.5z" />
<glyph unicode="&#xf8;" horiz-adv-x="1163" d="M41 -41l168 166q-168 144 -168 362q0 112 48 208t126 158t173.5 97t193.5 35q96 0 190 -33t170 -94l168 168l10 -10l-166 -168q168 -144 168 -361q0 -113 -48 -209t-125.5 -157.5t-173 -96t-193.5 -34.5q-97 0 -191.5 32t-169.5 93l-168 -168zM209 487q0 -154 74 -286 l587 587q-52 84 -127.5 132.5t-160.5 48.5q-153 0 -263 -141t-110 -341zM291 186q53 -85 129 -132.5t162 -47.5q152 0 261 140t109 341q0 163 -73 287z" />
<glyph unicode="&#xf9;" horiz-adv-x="1067" d="M102 348v623h160v-652q0 -92 29.5 -163t92 -108.5t146.5 -20.5q65 12 116 67.5t79.5 127.5t47 161t24.5 158.5t6 130.5v299h162v-971h-162v498q-9 -78 -22.5 -142.5t-41 -135t-65 -119t-98 -80t-136.5 -31.5q-149 0 -243.5 92.5t-94.5 265.5zM339.5 1374.5 q-5.5 27.5 10.5 46.5q15 21 39.5 23t56.5 -23q139 -123 250 -229l-12 -18q-104 38 -305 153q-34 20 -39.5 47.5z" />
<glyph unicode="&#xfa;" horiz-adv-x="1067" d="M102 348v623h160v-652q0 -92 29.5 -163t92 -108.5t146.5 -20.5q65 12 116 67.5t79.5 127.5t47 161t24.5 158.5t6 130.5v299h162v-971h-162v498q-9 -78 -22.5 -142.5t-41 -135t-65 -119t-98 -80t-136.5 -31.5q-149 0 -243.5 92.5t-94.5 265.5zM412 1192q111 106 250 229 q32 25 56.5 23t39.5 -23q16 -19 10.5 -46.5t-39.5 -47.5q-201 -115 -305 -153z" />
<glyph unicode="&#xfb;" horiz-adv-x="1067" d="M102 348v623h160v-652q0 -92 29.5 -163t92 -108.5t146.5 -20.5q65 12 116 67.5t79.5 127.5t47 161t24.5 158.5t6 130.5v299h162v-971h-162v498q-9 -78 -22.5 -142.5t-41 -135t-65 -119t-98 -80t-136.5 -31.5q-149 0 -243.5 92.5t-94.5 265.5zM291 1122l262 262l262 -262 l-10 -10l-252 162l-252 -162z" />
<glyph unicode="&#xfc;" horiz-adv-x="1067" d="M102 348v623h160v-652q0 -92 29.5 -163t92 -108.5t146.5 -20.5q65 12 116 67.5t79.5 127.5t47 161t24.5 158.5t6 130.5v299h162v-971h-162v498q-9 -78 -22.5 -142.5t-41 -135t-65 -119t-98 -80t-136.5 -31.5q-149 0 -243.5 92.5t-94.5 265.5zM274 1204q0 37 25.5 63.5 t62.5 26.5t64 -26.5t27 -63.5t-27 -63.5t-64 -26.5t-62.5 26.5t-25.5 63.5zM651 1204q0 37 26.5 63.5t63.5 26.5t63.5 -26.5t26.5 -63.5t-26.5 -63.5t-63.5 -26.5t-63.5 26.5t-26.5 63.5z" />
<glyph unicode="&#xfd;" horiz-adv-x="888" d="M20 985h162l342 -817l330 817h14l-354 -881q-40 -123 -87 -205t-91.5 -123t-98.5 -55t-99 -8t-103 25v145q13 -12 45 -25.5t80.5 -20.5t98.5 -1t103 41.5t89 99.5zM362 1192q111 106 250 229q32 25 57 23t40 -23q16 -19 10.5 -46.5t-39.5 -47.5q-201 -115 -305 -153z" />
<glyph unicode="&#xfe;" horiz-adv-x="1261" d="M123 -459v1893h162v-795q38 159 149 252.5t254 93.5q84 0 165 -36.5t144.5 -100.5t102.5 -158.5t39 -202.5t-39 -202.5t-102.5 -158t-144.5 -100t-165 -36.5q-143 0 -254 93.5t-149 252.5v-795h-162zM285 487q0 -60 13 -122.5t42.5 -124.5t72 -108.5t108 -74t143.5 -22.5 q126 6 215.5 133t89.5 319q0 190 -89.5 317.5t-215.5 135.5q-78 5 -143.5 -22.5t-108 -74.5t-72 -109t-42.5 -124.5t-13 -122.5z" />
<glyph unicode="&#xff;" horiz-adv-x="888" d="M20 985h162l342 -817l330 817h14l-354 -881q-40 -123 -87 -205t-91.5 -123t-98.5 -55t-99 -8t-103 25v145q13 -12 45 -25.5t80.5 -20.5t98.5 -1t103 41.5t89 99.5zM227 1204q0 37 25.5 63.5t62.5 26.5t64 -26.5t27 -63.5t-27 -63.5t-64 -26.5t-62.5 26.5t-25.5 63.5z M604 1204q0 37 26.5 63.5t63.5 26.5t63.5 -26.5t26.5 -63.5t-26.5 -63.5t-63.5 -26.5t-63.5 26.5t-26.5 63.5z" />
<glyph unicode="&#x152;" horiz-adv-x="2236" d="M41 721q0 149 63 285.5t167.5 234t245 155.5t290.5 58q176 0 335.5 -78.5t268.5 -212.5v271h721v-127l-559 110v-604l516 45v-104l-516 45v-785l581 111v-125h-743v279q-109 -134 -268.5 -211.5t-335.5 -77.5q-150 0 -290.5 58t-245 155.5t-167.5 233.5t-63 284zM213 721 q0 -141 43 -270.5t119 -228t188.5 -157.5t243.5 -59q173 0 310.5 100.5t210.5 263t73 351.5q0 142 -43.5 271.5t-119.5 228t-188.5 157t-242.5 58.5q-131 0 -243.5 -58.5t-188.5 -157t-119 -228t-43 -271.5z" />
<glyph unicode="&#x153;" horiz-adv-x="2009" d="M41 487q0 112 48 208t126 158t173.5 97t193.5 35q136 0 262.5 -63t199.5 -174q76 111 203.5 170.5t255.5 66.5q54 3 110 -5.5t112.5 -32.5t102 -61t78 -94.5t40.5 -129.5h-805q-43 -174 12 -328q57 -160 179 -242t278 -67q58 7 111 31t89 52.5t68.5 66.5t48 61.5 t29.5 48.5l12 -9q-149 -272 -428 -286q-150 -6 -288 52.5t-214 176.5q-75 -108 -199.5 -168.5t-256.5 -60.5q-98 0 -193.5 34.5t-173.5 96t-126 157.5t-48 209zM209 487q0 -201 110 -341t263 -140t262.5 140t109.5 341q0 200 -109.5 341t-262.5 141t-263 -141t-110 -341z M1145 678h651q-19 138 -129.5 225t-255.5 60q-101 -19 -168.5 -96.5t-97.5 -188.5z" />
<glyph unicode="&#x178;" horiz-adv-x="1142" d="M20 1434h162l490 -926l434 926h16l-440 -938v-496h-162v496zM358 1675q0 37 25.5 63.5t62.5 26.5t64 -26.5t27 -63.5t-27 -63.5t-64 -26.5t-62.5 26.5t-25.5 63.5zM735 1675q0 37 26.5 63.5t63.5 26.5t63.5 -26.5t26.5 -63.5t-26.5 -63.5t-63.5 -26.5t-63.5 26.5 t-26.5 63.5z" />
<glyph unicode="&#x2c6;" horiz-adv-x="770" d="M123 1184l262 262l262 -262l-10 -10l-252 161l-252 -161z" />
<glyph unicode="&#x2dc;" horiz-adv-x="872" d="M123 1171q29 89 71 132t111 43q64 0 169.5 -42t162.5 -40q35 0 56.5 21t39.5 79l17 -4q-60 -182 -177 -182q-68 0 -182.5 42.5t-152.5 41.5q-41 0 -60.5 -19.5t-38.5 -75.5z" />
<glyph unicode="&#x2000;" horiz-adv-x="957" />
<glyph unicode="&#x2001;" horiz-adv-x="1915" />
<glyph unicode="&#x2002;" horiz-adv-x="957" />
<glyph unicode="&#x2003;" horiz-adv-x="1915" />
<glyph unicode="&#x2004;" horiz-adv-x="638" />
<glyph unicode="&#x2005;" horiz-adv-x="478" />
<glyph unicode="&#x2006;" horiz-adv-x="319" />
<glyph unicode="&#x2007;" horiz-adv-x="319" />
<glyph unicode="&#x2008;" horiz-adv-x="239" />
<glyph unicode="&#x2009;" horiz-adv-x="383" />
<glyph unicode="&#x200a;" horiz-adv-x="106" />
<glyph unicode="&#x2010;" d="M123 709v16h788v-16h-788z" />
<glyph unicode="&#x2011;" d="M123 709v16h788v-16h-788z" />
<glyph unicode="&#x2012;" d="M123 709v16h788v-16h-788z" />
<glyph unicode="&#x2013;" horiz-adv-x="1144" d="M123 709v16h899v-16h-899z" />
<glyph unicode="&#x2014;" horiz-adv-x="1277" d="M123 709v16h1032v-16h-1032z" />
<glyph unicode="&#x2018;" horiz-adv-x="468" d="M123 1153q0 156 184 303l10 -10q-127 -108 -157 -211q29 29 73 29q46 0 79.5 -32.5t33.5 -78.5t-33.5 -78.5t-79.5 -32.5t-78 32.5t-32 78.5z" />
<glyph unicode="&#x2019;" horiz-adv-x="468" d="M123 1346q0 44 33 77t77 33q46 0 79.5 -33t33.5 -77q0 -157 -184 -304l-10 11q124 109 157 211q-34 -31 -76 -31q-44 0 -77 33.5t-33 79.5z" />
<glyph unicode="&#x201a;" horiz-adv-x="468" d="M123 100q0 46 33.5 78.5t79.5 32.5q44 0 77 -32.5t33 -78.5q0 -156 -184 -303l-10 10q128 112 157 211q-28 -28 -73 -28q-46 0 -79.5 32.5t-33.5 77.5z" />
<glyph unicode="&#x201c;" horiz-adv-x="811" d="M123 1153q0 156 184 303l10 -10q-127 -108 -157 -211q29 29 73 29q46 0 78.5 -32.5t32.5 -78.5t-32.5 -78.5t-78.5 -32.5t-78 32.5t-32 78.5zM467 1153q0 156 184 303l11 -10q-64 -55 -103 -105t-57 -106q32 29 76 29q46 0 78 -32.5t32 -78.5t-32 -78.5t-78 -32.5 t-78.5 32.5t-32.5 78.5z" />
<glyph unicode="&#x201d;" horiz-adv-x="811" d="M123 1346q0 45 32.5 77.5t77.5 32.5t78 -33t33 -77q0 -157 -184 -304l-10 11q127 108 157 211q-31 -31 -74 -31q-45 0 -77.5 33.5t-32.5 79.5zM465 1346q0 45 32.5 77.5t77.5 32.5q46 0 79.5 -33t33.5 -77q0 -157 -184 -304l-10 11q124 109 157 211q-34 -31 -76 -31 q-45 0 -77.5 33.5t-32.5 79.5z" />
<glyph unicode="&#x201e;" horiz-adv-x="811" d="M123 100q0 46 33.5 78.5t79.5 32.5q44 0 77 -32.5t33 -78.5q0 -156 -184 -303l-10 10q124 109 157 211q-31 -28 -73 -28q-46 0 -79.5 32.5t-33.5 77.5zM467 100q0 46 32.5 78.5t78.5 32.5t78 -32.5t32 -78.5q0 -156 -184 -303l-10 10q126 107 159 211q-31 -28 -75 -28 q-46 0 -78.5 32t-32.5 78z" />
<glyph unicode="&#x2022;" horiz-adv-x="573" d="M123 487q0 68 47.5 116t116.5 48q67 0 115.5 -48.5t48.5 -115.5t-48 -115t-116 -48q-69 0 -116.5 47.5t-47.5 115.5z" />
<glyph unicode="&#x2026;" horiz-adv-x="1351" d="M123 100q0 46 32 78.5t78 32.5t78.5 -32.5t32.5 -78.5t-32.5 -78t-78.5 -32t-78 32t-32 78zM565 100q0 46 32.5 78.5t78.5 32.5t78 -32.5t32 -78.5t-32 -78t-78 -32t-78.5 32t-32.5 78zM1008 100q0 46 32 78.5t78 32.5t78.5 -32.5t32.5 -78.5t-32.5 -78t-78.5 -32t-78 32 t-32 78z" />
<glyph unicode="&#x202f;" horiz-adv-x="383" />
<glyph unicode="&#x2039;" horiz-adv-x="540" d="M123 600l283 285l12 -11l-275 -274l275 -272l-12 -13z" />
<glyph unicode="&#x203a;" horiz-adv-x="540" d="M123 328l272 272l-272 274l10 11l285 -285l-285 -285z" />
<glyph unicode="&#x205f;" horiz-adv-x="478" />
<glyph unicode="&#x20ac;" horiz-adv-x="1886" d="M123 559v16h231q-16 75 -16 146q0 72 16 147h-231v17h235q40 161 152 291t270 204t330 74q152 0 307 -56t211 -104v-243q-116 198 -320.5 298t-406.5 56q-176 -37 -279.5 -180t-121.5 -340h743v-17h-745q-10 -155 32 -293h603v-16h-598v-4q83 -270 290 -403t478 -93 q139 22 254 112t192 243l14 -8q-202 -416 -669 -416q-261 0 -469 161.5t-267 407.5h-235z" />
<glyph unicode="&#x25fc;" horiz-adv-x="983" d="M0 0v983h983v-983h-983z" />
</font>
</defs>
</svg>
