<svg width="171" height="157" viewBox="0 0 171 157" fill="none" xmlns="http://www.w3.org/2000/svg">
<path d="M31.2987 105.34L4.60131 113.806L1.85585 105.149C1.16703 102.977 0.869026 100.831 0.961846 98.7121C1.04225 96.5966 1.46566 94.6797 2.23208 92.9614C2.99849 91.2431 4.08504 89.7374 5.49175 88.4444C6.88604 87.1553 8.50784 86.2175 10.3572 85.631C12.2189 85.0406 14.0972 84.8684 15.992 85.1144C17.8867 85.3604 19.6362 85.9667 21.2404 86.9332C22.8446 87.8997 24.2954 89.2223 25.5927 90.9008C26.8775 92.5833 27.8644 94.5106 28.5532 96.6826L31.2987 105.34ZM30.0933 102.444L28.2926 96.7652C27.7021 94.9035 26.8114 93.3009 25.6204 91.9575C24.417 90.618 23.0562 89.6221 21.538 88.9698C20.0034 88.309 18.3575 87.9431 16.6001 87.8721C14.8304 87.805 13.0643 88.0509 11.3019 88.6098C9.5394 89.1687 7.96678 89.9817 6.58398 91.0485C5.18877 92.1194 4.06072 93.365 3.19984 94.7854C2.33503 96.1935 1.80307 97.7896 1.60398 99.5739C1.39247 101.362 1.58193 103.187 2.17235 105.049L3.97313 110.727L30.0933 102.444Z" fill="#DDDDDD"/>
<path d="M24.7782 70.1565L6.05859 67.1169L6.56571 63.9937L14.6628 65.3085C13.7756 65.0853 12.9762 64.85 12.2645 64.6025C11.5399 64.3529 10.8204 64.0316 10.1059 63.6386C9.39142 63.2455 8.8074 62.8209 8.35382 62.3647C7.90233 61.8957 7.56497 61.333 7.34175 60.6768C7.10567 60.0185 7.05023 59.3037 7.17545 58.5326C7.37997 57.273 8.0541 56.2085 9.19784 55.3389L13.1307 55.9775C10.3536 56.8325 8.82209 58.1404 8.53618 59.9012C8.50905 60.0682 8.49478 60.2374 8.49335 60.4087C8.47823 62.939 11.9806 64.807 19.0005 66.0128L25.2853 67.0333L24.7782 70.1565Z" fill="#DDDDDD"/>
<path d="M25.4127 45.2669C24.0251 45.1007 22.7225 44.6163 21.5049 43.8137C20.2874 43.011 19.3288 42.0048 18.6291 40.795C17.9295 39.5852 17.5222 38.3341 17.4072 37.0419C17.2921 35.7496 17.3848 34.4616 17.6851 33.178C17.9926 31.8836 18.4975 30.7037 19.1999 29.6383C19.9022 28.5729 20.784 27.6493 21.8453 26.8674C22.9138 26.0746 24.0609 25.4818 25.2868 25.089C26.5198 24.6854 27.8301 24.5667 29.2177 24.7328C30.6053 24.899 31.9079 25.3834 33.1255 26.1861C34.3431 26.9887 35.3017 27.995 36.0013 29.2048C36.7009 30.4146 37.1083 31.6656 37.2233 32.9579C37.3455 34.2393 37.2528 35.5272 36.9453 36.8217C36.6341 38.0981 36.1274 39.269 35.425 40.3344C34.7227 41.3997 33.8427 42.3324 32.7851 43.1324C31.7238 43.9143 30.5767 44.5071 29.3437 44.9107C28.1107 45.3143 26.8004 45.433 25.4127 45.2669V45.2669ZM18.9328 35.6147C19.6664 37.8138 21.1258 39.6337 23.3109 41.0741C25.496 42.5146 27.7437 43.1386 30.054 42.946C32.3643 42.7535 34.0676 41.8256 35.1641 40.1624C36.2606 38.4991 36.4384 36.5733 35.6976 34.385C34.964 32.1859 33.5046 30.3661 31.3195 28.9256C29.1344 27.4851 26.8867 26.8612 24.5764 27.0537C22.2625 27.2281 20.5572 28.147 19.4607 29.8103C18.3643 31.4736 18.1883 33.4084 18.9328 35.6147Z" fill="#DDDDDD"/>
<path d="M53.826 31.9388L40.3789 7.37034L43.1202 5.86997L46.2709 11.6266C45.711 9.57296 45.7742 7.66806 46.4606 5.91191C47.1522 4.13808 48.3147 2.80417 49.948 1.9102C50.9189 1.37882 51.9826 1.07126 53.139 0.987495C54.2893 0.892301 55.4242 1.01327 56.5439 1.35043C57.6636 1.68759 58.7374 2.27993 59.7653 3.12745C60.7984 3.9573 61.6525 4.98899 62.3277 6.22255C63.0029 7.45611 63.4147 8.73735 63.5631 10.0662C63.7167 11.3775 63.6338 12.5955 63.3143 13.7203C62.9886 14.8338 62.4788 15.855 61.7849 16.7839C61.0848 17.7015 60.2493 18.426 59.2784 18.9574C57.6451 19.8513 55.8981 20.1173 54.0375 19.7552C52.182 19.3755 50.5403 18.3964 49.1122 16.8178L56.5672 30.4384L53.826 31.9388ZM46.775 12.0187C47.0141 12.8081 47.3212 13.5455 47.6963 14.2308C48.0714 14.9161 48.5301 15.5779 49.0724 16.2162C49.6085 16.8431 50.236 17.42 50.9548 17.9468C51.685 18.4674 52.4369 18.8649 53.2105 19.1391C53.9892 19.3957 54.8399 19.4719 55.7625 19.3677C56.5407 19.298 57.2954 19.0631 58.0264 18.663C58.1634 18.588 58.2974 18.5073 58.4282 18.4208C59.8527 17.5521 60.6762 16.1142 60.8988 14.1073C61.1328 12.0941 60.6497 9.99095 59.4494 7.79795C58.2554 5.61637 56.7474 4.08162 54.9255 3.19369C53.115 2.29949 51.4537 2.20681 49.9417 2.91562C49.7984 2.97922 49.6582 3.04852 49.5211 3.12353C48.7901 3.52363 48.1824 4.02695 47.698 4.63349C47.1192 5.3659 46.7311 6.13492 46.5338 6.94057C46.3479 7.73996 46.2775 8.58751 46.3224 9.48321C46.3788 10.3727 46.5296 11.2178 46.775 12.0187L46.775 12.0187Z" fill="#DDDDDD"/>
<path d="M97.6368 5.22481C97.139 4.50552 96.9648 3.70952 97.1142 2.8368C97.2636 1.96408 97.6926 1.27132 98.4013 0.758535C99.1228 0.247946 99.9263 0.0684354 100.812 0.220017C101.672 0.367217 102.356 0.807972 102.864 1.54228C103.388 2.26597 103.576 3.05776 103.429 3.91765C103.281 4.77754 102.847 5.46278 102.126 5.97336C101.404 6.48395 100.607 6.66454 99.7343 6.51516C98.8487 6.36357 98.1496 5.93346 97.6368 5.22481V5.22481Z" fill="#DDDDDD"/>
<path d="M132.239 21.0553C133.19 20.1662 134.218 19.5976 135.323 19.3493C136.446 19.1017 137.5 19.1327 138.484 19.4424C139.477 19.7616 140.419 20.2632 141.307 20.9473C141.72 21.2745 142.095 21.6188 142.433 21.9803C142.824 22.3989 143.169 22.8435 143.466 23.3142C144.025 24.2175 144.393 25.1742 144.571 26.1843C144.767 27.1951 144.699 28.1325 144.366 28.9964L147.091 26.4492C148.252 25.3645 148.956 24.1447 149.205 22.7896C149.472 21.4352 149.138 20.2586 148.205 19.2597C147.333 18.3275 146.349 17.7507 145.251 17.5293C144.162 17.3174 143.111 17.4616 142.099 17.9617L141.998 17.6819C143.067 17.1468 144.191 16.996 145.371 17.2294C146.57 17.4634 147.694 18.1416 148.743 19.2641C149.215 19.7683 149.625 20.3119 149.973 20.8949C150.322 21.4778 150.591 22.1179 150.779 22.8152C150.986 23.5131 151.073 24.207 151.04 24.8969C151.008 25.5867 150.809 26.2985 150.443 27.0323C150.086 27.7757 149.561 28.4719 148.866 29.1209L139.662 37.7227L139.356 37.3945L141.597 31.5836C140.123 32.4089 138.577 32.7758 136.958 32.6842C135.359 32.5933 133.919 31.8629 132.638 30.493C131.314 29.0756 130.6 27.4439 130.496 25.5979C130.393 23.752 130.974 22.2378 132.239 21.0553V21.0553ZM134.47 22.8995C133.281 24.0108 132.629 25.3154 132.514 26.8131C132.408 28.3203 132.835 29.5877 133.795 30.615C134.408 31.2714 135.125 31.7333 135.945 32.0005C136.765 32.2678 137.592 32.351 138.424 32.2502C139.266 32.1404 140.089 31.9057 140.894 31.546C141.707 31.1958 142.446 30.7371 143.11 30.17L143.809 29.5165C144.124 28.9191 144.294 28.2524 144.319 27.5162C144.344 26.7801 144.225 26.0713 143.962 25.39C143.691 24.6991 143.335 24.0422 142.896 23.4193C142.747 23.2024 142.592 23.0083 142.432 22.8371C142.094 22.4756 141.704 22.163 141.261 21.8993C140.611 21.5088 139.929 21.2462 139.215 21.1115C138.52 20.9775 137.748 21.0573 136.899 21.3511C136.07 21.6455 135.26 22.1616 134.47 22.8995V22.8995Z" fill="#DDDDDD"/>
<path d="M157.887 65.5624C158.446 64.8898 159.166 64.5082 160.047 64.4178C160.928 64.3273 161.71 64.5545 162.395 65.0995C163.08 65.6573 163.469 66.3831 163.561 67.2769C163.65 68.1447 163.409 68.922 162.838 69.609C162.282 70.3075 161.569 70.7013 160.702 70.7905C159.834 70.8796 159.057 70.6452 158.371 70.0873C157.686 69.5295 157.298 68.8101 157.207 67.9293C157.116 67.0356 157.342 66.2466 157.887 65.5624V65.5624Z" fill="#DDDDDD"/>
<path d="M145.893 101.353L170.051 115.523L168.47 118.219L144.548 104.186L140.657 115.105L138.551 113.87L145.893 101.353Z" fill="#DDDDDD"/>
<path d="M145.37 139.497C145.885 139.536 146.311 139.753 146.651 140.147C146.991 140.542 147.142 140.997 147.103 141.511C147.064 142.025 146.848 142.452 146.453 142.792C146.058 143.131 145.604 143.282 145.09 143.243C144.575 143.205 144.149 142.988 143.809 142.593C143.469 142.199 143.318 141.744 143.357 141.23C143.396 140.716 143.612 140.289 144.007 139.949C144.402 139.609 144.856 139.459 145.37 139.497ZM130.439 121.967L142.988 136.549L140.619 138.587L128.07 124.005L130.439 121.967Z" fill="#DDDDDD"/>
<path d="M118.309 131.212L124.987 148.962L122.026 150.076L118.628 141.046C118.803 141.731 118.949 142.379 119.067 142.988C119.173 143.602 119.262 144.264 119.334 144.975C119.399 145.701 119.418 146.362 119.391 146.956C119.357 147.568 119.261 148.181 119.103 148.797C118.95 149.425 118.728 149.981 118.438 150.466C118.135 150.956 117.734 151.406 117.234 151.816C116.739 152.239 116.157 152.577 115.487 152.829C113.878 153.434 112.305 153.393 110.766 152.706C109.215 152.023 107.921 150.653 106.882 148.596C103.363 141.461 101.542 137.785 101.418 137.567L104.416 136.439C107.259 142.367 109.12 146.223 110 148.007C110.285 148.581 110.602 149.109 110.95 149.59C111.303 150.083 111.707 150.529 112.163 150.928C112.624 151.339 113.095 151.649 113.577 151.857C114.068 152.09 114.603 152.181 115.182 152.13C115.506 152.105 115.825 152.027 116.137 151.895C116.393 151.799 116.652 151.674 116.914 151.52C117.651 151.075 118.202 150.395 118.567 149.479C118.924 148.579 119.114 147.624 119.137 146.614C119.148 145.608 119.057 144.515 118.864 143.336C118.675 142.169 118.459 141.151 118.216 140.283C117.973 139.414 117.711 138.608 117.431 137.865L115.347 132.326L118.309 131.212Z" fill="#DDDDDD"/>
<path d="M90.1471 147.989C90.136 148.092 90.1243 148.202 90.112 148.319C89.9725 149.509 89.6535 150.601 89.1551 151.595C88.5952 152.675 87.9193 153.553 87.1274 154.228C86.3211 154.915 85.4165 155.48 84.4136 155.923C83.4106 156.367 82.4228 156.668 81.4501 156.826C80.4774 156.985 79.5293 157.035 78.6059 156.976C78.4232 156.97 78.2484 156.951 78.0815 156.92C77.3693 156.845 76.659 156.691 75.9504 156.458C75.066 156.155 74.2278 155.725 73.4357 155.17C72.6436 154.614 71.9958 153.871 71.4924 152.94C70.9889 152.01 70.7336 150.961 70.7266 149.795L86.3612 151.456C86.6845 150.508 86.8943 149.581 86.9905 148.675C87.1212 147.445 87.0463 146.239 86.766 145.056C86.248 142.906 85.2556 141.217 83.7887 139.987C82.5731 138.981 81.1632 138.386 79.5591 138.202C79.2224 138.166 78.8772 138.149 78.5235 138.151C77.7772 138.15 77.0451 138.263 76.3273 138.487C75.608 138.725 75.0025 139.001 74.5109 139.316C74.0048 139.642 73.5185 140.029 73.052 140.477C72.5724 140.923 72.2197 141.285 71.9939 141.563C71.7537 141.851 71.5258 142.148 71.3101 142.452L71.0311 142.305C73.4163 138.957 76.4053 137.383 79.9982 137.581C80.2068 137.59 80.4146 137.606 80.6218 137.628C81.4634 137.717 82.2896 137.89 83.1004 138.146C84.1142 138.463 85.0747 138.912 85.982 139.493C86.8749 140.086 87.6526 140.777 88.315 141.568C88.9631 142.37 89.4573 143.326 89.7977 144.436C90.1381 145.546 90.2546 146.73 90.147 147.989H90.1471ZM86.2506 151.758L73.5681 150.411C73.6474 152.253 74.3401 153.806 75.6461 155.071C76.643 156.041 77.8219 156.592 79.1828 156.723C79.61 156.768 80.0479 156.776 80.4964 156.745C81.8044 156.635 82.9523 156.122 83.94 155.205C84.9263 154.302 85.6965 153.153 86.2506 151.758V151.758Z" fill="#DDDDDD"/>
</svg>
